%TF.GenerationSoftware,KiCad,Pcbnew,10.0.0*%
%TF.CreationDate,2026-03-31T21:36:53-07:00*%
%TF.ProjectId,hackpad,6861636b-7061-4642-9e6b-696361645f70,rev?*%
%TF.SameCoordinates,Original*%
%TF.FileFunction,Profile,NP*%
%FSLAX46Y46*%
G04 Gerber Fmt 4.6, Leading zero omitted, Abs format (unit mm)*
G04 Created by KiCad (PCBNEW 10.0.0) date 2026-03-31 21:36:53*
%MOMM*%
%LPD*%
G01*
G04 APERTURE LIST*
%TA.AperFunction,Profile*%
%ADD10C,0.050000*%
%TD*%
%ADD11C,0.350000*%
%ADD12O,2.800000X1.500000*%
G04 APERTURE END LIST*
D10*
X32500000Y-50000000D02*
X108700000Y-50100000D01*
X32500000Y-126750000D02*
X32500000Y-50000000D01*
X108500000Y-126750000D02*
X32500000Y-126750000D01*
X108700000Y-50100000D02*
X108700000Y-126750000D01*
X108700000Y-126750000D02*
X108500000Y-126750000D01*
D11*
X51625000Y-111762700D03*
X51625000Y-119299700D03*
X33900000Y-73662700D03*
X33900000Y-81199700D03*
X37020000Y-115800000D03*
X42100000Y-115800000D03*
X47180000Y-115800000D03*
X44640000Y-110720000D03*
X38290000Y-113260000D03*
X70650000Y-92681500D03*
X70650000Y-100218500D03*
X92500000Y-75100000D03*
X92500000Y-80100000D03*
X92500000Y-77600000D03*
D12*
X100000000Y-72000000D03*
X100000000Y-83200000D03*
D11*
X107000000Y-80100000D03*
X107000000Y-75100000D03*
X56020000Y-96700000D03*
X61100000Y-96700000D03*
X66180000Y-96700000D03*
X63640000Y-91620000D03*
X57290000Y-94160000D03*
X56020000Y-77700000D03*
X61100000Y-77700000D03*
X66180000Y-77700000D03*
X63640000Y-72620000D03*
X57290000Y-75160000D03*
X51605000Y-73662700D03*
X51605000Y-81199700D03*
X56020000Y-115800000D03*
X61100000Y-115800000D03*
X66180000Y-115800000D03*
X63640000Y-110720000D03*
X57290000Y-113260000D03*
X33800000Y-92712700D03*
X33800000Y-100249700D03*
X62100000Y-55450000D03*
X62100000Y-57990000D03*
X62100000Y-60530000D03*
X62100000Y-63070000D03*
X70675000Y-73662700D03*
X70675000Y-81199700D03*
X70800000Y-111763000D03*
X70800000Y-119300000D03*
X89750000Y-92681500D03*
X89750000Y-100218500D03*
X37000000Y-77700000D03*
X42080000Y-77700000D03*
X47160000Y-77700000D03*
X44620000Y-72620000D03*
X38270000Y-75160000D03*
X94220000Y-115800000D03*
X99300000Y-115800000D03*
X104380000Y-115800000D03*
X101840000Y-110720000D03*
X95490000Y-113260000D03*
X33800000Y-111862700D03*
X33800000Y-119399700D03*
X75120000Y-96700000D03*
X80200000Y-96700000D03*
X85280000Y-96700000D03*
X82740000Y-91620000D03*
X76390000Y-94160000D03*
X36980000Y-96700000D03*
X42060000Y-96700000D03*
X47140000Y-96700000D03*
X44600000Y-91620000D03*
X38250000Y-94160000D03*
X94220000Y-96700000D03*
X99300000Y-96700000D03*
X104380000Y-96700000D03*
X101840000Y-91620000D03*
X95490000Y-94160000D03*
X75120000Y-77700000D03*
X80200000Y-77700000D03*
X85280000Y-77700000D03*
X82740000Y-72620000D03*
X76390000Y-75160000D03*
X89750000Y-73750000D03*
X89750000Y-81287000D03*
X75120000Y-115800000D03*
X80200000Y-115800000D03*
X85280000Y-115800000D03*
X82740000Y-110720000D03*
X76390000Y-113260000D03*
X51600000Y-92700000D03*
X51600000Y-100237000D03*
X89825000Y-111763000D03*
X89825000Y-119300000D03*
M02*
