%TF.GenerationSoftware,KiCad,Pcbnew,10.0.0*%
%TF.CreationDate,2026-03-31T21:36:52-07:00*%
%TF.ProjectId,hackpad,6861636b-7061-4642-9e6b-696361645f70,rev?*%
%TF.SameCoordinates,Original*%
%TF.FileFunction,Copper,L2,Bot*%
%TF.FilePolarity,Positive*%
%FSLAX46Y46*%
G04 Gerber Fmt 4.6, Leading zero omitted, Abs format (unit mm)*
G04 Created by KiCad (PCBNEW 10.0.0) date 2026-03-31 21:36:52*
%MOMM*%
%LPD*%
G01*
G04 APERTURE LIST*
%TA.AperFunction,ComponentPad*%
%ADD10C,1.238000*%
%TD*%
%TA.AperFunction,ComponentPad*%
%ADD11R,1.238000X1.238000*%
%TD*%
%TA.AperFunction,ComponentPad*%
%ADD12C,2.200000*%
%TD*%
%TA.AperFunction,ComponentPad*%
%ADD13R,2.000000X2.000000*%
%TD*%
%TA.AperFunction,ComponentPad*%
%ADD14C,2.000000*%
%TD*%
%TA.AperFunction,ComponentPad*%
%ADD15R,3.200000X2.000000*%
%TD*%
%TA.AperFunction,ComponentPad*%
%ADD16R,1.370000X1.370000*%
%TD*%
%TA.AperFunction,ComponentPad*%
%ADD17C,1.370000*%
%TD*%
%TA.AperFunction,ViaPad*%
%ADD18C,0.600000*%
%TD*%
%TA.AperFunction,Conductor*%
%ADD19C,0.200000*%
%TD*%
%ADD20C,0.300000*%
%ADD21C,0.350000*%
%ADD22O,2.800000X1.500000*%
G04 APERTURE END LIST*
D10*
%TO.P,D27,1,K_1*%
%TO.N,Net-(D27-K)*%
X51625000Y-111762700D03*
D11*
%TO.P,D27,2,A_2*%
%TO.N,Col 2*%
X51625000Y-119299700D03*
%TD*%
D10*
%TO.P,D16,1,K_1*%
%TO.N,Net-(D16-K)*%
X33900000Y-73662700D03*
D11*
%TO.P,D16,2,A_2*%
%TO.N,Col 1*%
X33900000Y-81199700D03*
%TD*%
D12*
%TO.P,SW12,1,1_1*%
%TO.N,Row 3*%
X44640000Y-110720000D03*
%TO.P,SW12,2,2_2*%
%TO.N,Net-(D26-K)*%
X38290000Y-113260000D03*
%TD*%
D10*
%TO.P,D23,1,K_1*%
%TO.N,Net-(D23-K)*%
X70650000Y-92681500D03*
D11*
%TO.P,D23,2,A_2*%
%TO.N,Col 3*%
X70650000Y-100218500D03*
%TD*%
D13*
%TO.P,SW4,A,A_A*%
%TO.N,A*%
X92500000Y-75100000D03*
D14*
%TO.P,SW4,B,B_B*%
%TO.N,B*%
X92500000Y-80100000D03*
%TO.P,SW4,C,C_C*%
%TO.N,GND*%
X92500000Y-77600000D03*
D15*
%TO.P,SW4,MP*%
%TO.N,N/C*%
X100000000Y-72000000D03*
X100000000Y-83200000D03*
D14*
%TO.P,SW4,S1,S1_S1*%
%TO.N,Net-(D19-K)*%
X107000000Y-80100000D03*
%TO.P,SW4,S2,S2_S2*%
%TO.N,Row 1*%
X107000000Y-75100000D03*
%TD*%
D12*
%TO.P,SW8,1,1_1*%
%TO.N,Row 2*%
X63640000Y-91620000D03*
%TO.P,SW8,2,2_2*%
%TO.N,Net-(D22-K)*%
X57290000Y-94160000D03*
%TD*%
%TO.P,SW2,1,1_1*%
%TO.N,Row 1*%
X63640000Y-72620000D03*
%TO.P,SW2,2,2_2*%
%TO.N,Net-(D17-K)*%
X57290000Y-75160000D03*
%TD*%
D10*
%TO.P,D17,1,K_1*%
%TO.N,Net-(D17-K)*%
X51605000Y-73662700D03*
D11*
%TO.P,D17,2,A_2*%
%TO.N,Col 2*%
X51605000Y-81199700D03*
%TD*%
D12*
%TO.P,SW13,1,1_1*%
%TO.N,Row 3*%
X63640000Y-110720000D03*
%TO.P,SW13,2,2_2*%
%TO.N,Net-(D27-K)*%
X57290000Y-113260000D03*
%TD*%
D10*
%TO.P,D21,1,K_1*%
%TO.N,Net-(D21-K)*%
X33800000Y-92712700D03*
D11*
%TO.P,D21,2,A_2*%
%TO.N,Col 1*%
X33800000Y-100249700D03*
%TD*%
D16*
%TO.P,J1,01,01_01*%
%TO.N,SDA*%
X62100000Y-55450000D03*
D17*
%TO.P,J1,02,02_02*%
%TO.N,SCl*%
X62100000Y-57990000D03*
%TO.P,J1,03,03_03*%
%TO.N,5v*%
X62100000Y-60530000D03*
%TO.P,J1,04,04_04*%
%TO.N,GND*%
X62100000Y-63070000D03*
%TD*%
D10*
%TO.P,D18,1,K_1*%
%TO.N,Net-(D18-K)*%
X70675000Y-73662700D03*
D11*
%TO.P,D18,2,A_2*%
%TO.N,Col 3*%
X70675000Y-81199700D03*
%TD*%
D10*
%TO.P,D28,1,K_1*%
%TO.N,Net-(D28-K)*%
X70800000Y-111763000D03*
D11*
%TO.P,D28,2,A_2*%
%TO.N,Col 3*%
X70800000Y-119300000D03*
%TD*%
D10*
%TO.P,D24,1,K_1*%
%TO.N,Net-(D24-K)*%
X89750000Y-92681500D03*
D11*
%TO.P,D24,2,A_2*%
%TO.N,Col 4*%
X89750000Y-100218500D03*
%TD*%
D12*
%TO.P,SW1,1,1_1*%
%TO.N,Row 1*%
X44620000Y-72620000D03*
%TO.P,SW1,2,2_2*%
%TO.N,Net-(D16-K)*%
X38270000Y-75160000D03*
%TD*%
%TO.P,SW15,1,1_1*%
%TO.N,Row 3*%
X101840000Y-110720000D03*
%TO.P,SW15,2,2_2*%
%TO.N,Net-(D29-K)*%
X95490000Y-113260000D03*
%TD*%
D10*
%TO.P,D26,1,K_1*%
%TO.N,Net-(D26-K)*%
X33800000Y-111862700D03*
D11*
%TO.P,D26,2,A_2*%
%TO.N,Col 1*%
X33800000Y-119399700D03*
%TD*%
D12*
%TO.P,SW9,1,1_1*%
%TO.N,Row 2*%
X82740000Y-91620000D03*
%TO.P,SW9,2,2_2*%
%TO.N,Net-(D23-K)*%
X76390000Y-94160000D03*
%TD*%
%TO.P,SW7,1,1_1*%
%TO.N,Row 2*%
X44600000Y-91620000D03*
%TO.P,SW7,2,2_2*%
%TO.N,Net-(D21-K)*%
X38250000Y-94160000D03*
%TD*%
%TO.P,SW10,1,1_1*%
%TO.N,Row 2*%
X101840000Y-91620000D03*
%TO.P,SW10,2,2_2*%
%TO.N,Net-(D24-K)*%
X95490000Y-94160000D03*
%TD*%
%TO.P,SW3,1,1_1*%
%TO.N,Row 1*%
X82740000Y-72620000D03*
%TO.P,SW3,2,2_2*%
%TO.N,Net-(D18-K)*%
X76390000Y-75160000D03*
%TD*%
D10*
%TO.P,D19,1,K_1*%
%TO.N,Net-(D19-K)*%
X89750000Y-73750000D03*
D11*
%TO.P,D19,2,A_2*%
%TO.N,Col 4*%
X89750000Y-81287000D03*
%TD*%
D12*
%TO.P,SW14,1,1_1*%
%TO.N,Row 3*%
X82740000Y-110720000D03*
%TO.P,SW14,2,2_2*%
%TO.N,Net-(D28-K)*%
X76390000Y-113260000D03*
%TD*%
D10*
%TO.P,D22,1,K_1*%
%TO.N,Net-(D22-K)*%
X51600000Y-92700000D03*
D11*
%TO.P,D22,2,A_2*%
%TO.N,Col 2*%
X51600000Y-100237000D03*
%TD*%
D10*
%TO.P,D29,1,K_1*%
%TO.N,Net-(D29-K)*%
X89825000Y-111763000D03*
D11*
%TO.P,D29,2,A_2*%
%TO.N,Col 4*%
X89825000Y-119300000D03*
%TD*%
D18*
%TO.N,Col 2*%
X41933300Y-81202200D03*
%TO.N,Row 3*%
X54438800Y-110571600D03*
%TO.N,Col 3*%
X40509600Y-70089000D03*
%TO.N,A*%
X61908500Y-74512700D03*
%TO.N,B*%
X45623300Y-81416700D03*
%TO.N,GND*%
X39600000Y-53900000D03*
%TO.N,Col 4*%
X44091700Y-65772000D03*
X86762300Y-69135800D03*
%TO.N,SCl*%
X49380500Y-58121100D03*
%TO.N,5v*%
X39746300Y-57673900D03*
%TO.N,SDA*%
X48560200Y-57297000D03*
%TD*%
%TO.N,Net-(D27-K)*%
D19*
X52767200Y-112904900D02*
X51625000Y-111762700D01*
X56935000Y-112905000D02*
X56935000Y-112904900D01*
X57290000Y-113260000D02*
X56935000Y-112905000D01*
X56935000Y-112904900D02*
X52767200Y-112904900D01*
%TO.N,Col 2*%
X51605000Y-81199700D02*
X50684300Y-81199700D01*
X41933300Y-81202200D02*
X42373100Y-80762400D01*
X50247000Y-80762400D02*
X50684300Y-81199700D01*
X42373100Y-80762400D02*
X50247000Y-80762400D01*
%TO.N,Col 1*%
X33900000Y-81199800D02*
X34650000Y-80449800D01*
X34650000Y-80449800D02*
X34649900Y-80449800D01*
X35400000Y-79699800D02*
X35400000Y-67900000D01*
X34649900Y-80449800D02*
X33900000Y-81199700D01*
X34650000Y-80449800D02*
X35400000Y-79699800D01*
%TO.N,Row 3*%
X54438800Y-110720000D02*
X54438800Y-110571600D01*
X54438800Y-110720000D02*
X44640000Y-110720000D01*
X82740000Y-110720000D02*
X101840000Y-110720000D01*
X63640000Y-110720000D02*
X54438800Y-110720000D01*
X63640000Y-110720000D02*
X82740000Y-110720000D01*
%TO.N,Net-(D26-K)*%
X38290000Y-113260000D02*
X35197300Y-113260000D01*
X35197300Y-113260000D02*
X33800000Y-111862700D01*
%TO.N,Net-(D23-K)*%
X70650000Y-92681500D02*
X74911500Y-92681500D01*
X74911500Y-92681500D02*
X76390000Y-94160000D01*
%TO.N,Col 3*%
X45316700Y-75301500D02*
X40509600Y-70494400D01*
X55585700Y-81199700D02*
X49687500Y-75301500D01*
X40509600Y-70494400D02*
X40509600Y-70089000D01*
X49687500Y-75301500D02*
X45316700Y-75301500D01*
X70675000Y-81199700D02*
X55585700Y-81199700D01*
%TO.N,A*%
X61908500Y-74512700D02*
X67671000Y-74512700D01*
X82720400Y-75100000D02*
X92500000Y-75100000D01*
X69463700Y-72720000D02*
X80340400Y-72720000D01*
X80340400Y-72720000D02*
X82720400Y-75100000D01*
X67671000Y-74512700D02*
X69463700Y-72720000D01*
%TO.N,B*%
X46327000Y-82120400D02*
X84927600Y-82120400D01*
X84927600Y-82120400D02*
X86948000Y-80100000D01*
X45623300Y-81416700D02*
X46327000Y-82120400D01*
X86948000Y-80100000D02*
X92500000Y-80100000D01*
%TO.N,Net-(D19-K)*%
X93576700Y-73750000D02*
X89750000Y-73750000D01*
X107000000Y-80100000D02*
X99926700Y-80100000D01*
X99926700Y-80100000D02*
X93576700Y-73750000D01*
%TO.N,Row 1*%
X64538600Y-72277100D02*
X64195700Y-72620000D01*
X93120100Y-72620000D02*
X82740000Y-72620000D01*
X82740000Y-72620000D02*
X82397100Y-72277100D01*
X107000000Y-75100000D02*
X95600100Y-75100000D01*
X64195700Y-72620000D02*
X44620000Y-72620000D01*
X95600100Y-75100000D02*
X93120100Y-72620000D01*
X82397100Y-72277100D02*
X64538600Y-72277100D01*
X64195700Y-72620000D02*
X63640000Y-72620000D01*
%TO.N,Row 2*%
X63640000Y-91620000D02*
X82740000Y-91620000D01*
X63640000Y-91620000D02*
X44600000Y-91620000D01*
X82740000Y-91620000D02*
X101840000Y-91620000D01*
%TO.N,Net-(D22-K)*%
X57290000Y-94160000D02*
X56935000Y-93805000D01*
X56935000Y-93805000D02*
X56935000Y-93804900D01*
X56935000Y-93804900D02*
X52704900Y-93804900D01*
X52704900Y-93804900D02*
X51600000Y-92700000D01*
%TO.N,Net-(D17-K)*%
X51605000Y-73662700D02*
X55792700Y-73662700D01*
X55792700Y-73662700D02*
X57290000Y-75160000D01*
%TO.N,Net-(D21-K)*%
X36802700Y-92712700D02*
X38250000Y-94160000D01*
X33800000Y-92712700D02*
X36802700Y-92712700D01*
%TO.N,Net-(D18-K)*%
X76035000Y-74805000D02*
X76035000Y-74804900D01*
X71817200Y-74804900D02*
X70675000Y-73662700D01*
X76390000Y-75160000D02*
X76035000Y-74805000D01*
X76035000Y-74804900D02*
X71817200Y-74804900D01*
%TO.N,Net-(D28-K)*%
X76035000Y-112904900D02*
X71941900Y-112904900D01*
X76390000Y-113260000D02*
X76035000Y-112905000D01*
X71941900Y-112904900D02*
X70800000Y-111763000D01*
X76035000Y-112905000D02*
X76035000Y-112904900D01*
%TO.N,Net-(D24-K)*%
X94011500Y-92681500D02*
X95490000Y-94160000D01*
X89750000Y-92681500D02*
X94011500Y-92681500D01*
%TO.N,Col 4*%
X86762300Y-69135800D02*
X47455500Y-69135800D01*
X47455500Y-69135800D02*
X44091700Y-65772000D01*
%TO.N,Net-(D29-K)*%
X93993000Y-111763000D02*
X95490000Y-113260000D01*
X89825000Y-111763000D02*
X93993000Y-111763000D01*
%TO.N,SCl*%
X55390000Y-57990000D02*
X53800000Y-56400000D01*
X53800000Y-56400000D02*
X50650000Y-56400000D01*
X49750000Y-57300000D02*
X49700000Y-57300000D01*
X49700000Y-57801600D02*
X49380500Y-58121100D01*
X49700000Y-57300000D02*
X49700000Y-57801600D01*
X62100000Y-57990000D02*
X55390000Y-57990000D01*
X50650000Y-56400000D02*
X49750000Y-57300000D01*
%TO.N,5v*%
X42602400Y-60530000D02*
X39746300Y-57673900D01*
X62100000Y-60530000D02*
X42602400Y-60530000D01*
%TO.N,SDA*%
X62100000Y-55450000D02*
X50407200Y-55450000D01*
X50407200Y-55450000D02*
X48560200Y-57297000D01*
%TD*%
D20*
X41933300Y-81202200D03*
X54438800Y-110571600D03*
X40509600Y-70089000D03*
X61908500Y-74512700D03*
X45623300Y-81416700D03*
X39600000Y-53900000D03*
X44091700Y-65772000D03*
X86762300Y-69135800D03*
X49380500Y-58121100D03*
X39746300Y-57673900D03*
X48560200Y-57297000D03*
D21*
X51625000Y-111762700D03*
X51625000Y-119299700D03*
X33900000Y-73662700D03*
X33900000Y-81199700D03*
X37020000Y-115800000D03*
X42100000Y-115800000D03*
X47180000Y-115800000D03*
X44640000Y-110720000D03*
X38290000Y-113260000D03*
X70650000Y-92681500D03*
X70650000Y-100218500D03*
X92500000Y-75100000D03*
X92500000Y-80100000D03*
X92500000Y-77600000D03*
D22*
X100000000Y-72000000D03*
X100000000Y-83200000D03*
D21*
X107000000Y-80100000D03*
X107000000Y-75100000D03*
X56020000Y-96700000D03*
X61100000Y-96700000D03*
X66180000Y-96700000D03*
X63640000Y-91620000D03*
X57290000Y-94160000D03*
X56020000Y-77700000D03*
X61100000Y-77700000D03*
X66180000Y-77700000D03*
X63640000Y-72620000D03*
X57290000Y-75160000D03*
X51605000Y-73662700D03*
X51605000Y-81199700D03*
X56020000Y-115800000D03*
X61100000Y-115800000D03*
X66180000Y-115800000D03*
X63640000Y-110720000D03*
X57290000Y-113260000D03*
X33800000Y-92712700D03*
X33800000Y-100249700D03*
X62100000Y-55450000D03*
X62100000Y-57990000D03*
X62100000Y-60530000D03*
X62100000Y-63070000D03*
X70675000Y-73662700D03*
X70675000Y-81199700D03*
X70800000Y-111763000D03*
X70800000Y-119300000D03*
X89750000Y-92681500D03*
X89750000Y-100218500D03*
X37000000Y-77700000D03*
X42080000Y-77700000D03*
X47160000Y-77700000D03*
X44620000Y-72620000D03*
X38270000Y-75160000D03*
X94220000Y-115800000D03*
X99300000Y-115800000D03*
X104380000Y-115800000D03*
X101840000Y-110720000D03*
X95490000Y-113260000D03*
X33800000Y-111862700D03*
X33800000Y-119399700D03*
X75120000Y-96700000D03*
X80200000Y-96700000D03*
X85280000Y-96700000D03*
X82740000Y-91620000D03*
X76390000Y-94160000D03*
X36980000Y-96700000D03*
X42060000Y-96700000D03*
X47140000Y-96700000D03*
X44600000Y-91620000D03*
X38250000Y-94160000D03*
X94220000Y-96700000D03*
X99300000Y-96700000D03*
X104380000Y-96700000D03*
X101840000Y-91620000D03*
X95490000Y-94160000D03*
X75120000Y-77700000D03*
X80200000Y-77700000D03*
X85280000Y-77700000D03*
X82740000Y-72620000D03*
X76390000Y-75160000D03*
X89750000Y-73750000D03*
X89750000Y-81287000D03*
X75120000Y-115800000D03*
X80200000Y-115800000D03*
X85280000Y-115800000D03*
X82740000Y-110720000D03*
X76390000Y-113260000D03*
X51600000Y-92700000D03*
X51600000Y-100237000D03*
X89825000Y-111763000D03*
X89825000Y-119300000D03*
M02*
