M48
; DRILL file KiCad 10.0.0 date 2026-03-31T21:36:53
; FORMAT={-:-/ absolute / metric / decimal}
; #@! TF.CreationDate,2026-03-31T21:36:53-07:00
; #@! TF.GenerationSoftware,Kicad,Pcbnew,10.0.0
; #@! TF.FileFunction,NonPlated,1,2,NPTH
FMAT,2
METRIC
; #@! TA.AperFunction,NonPlated,NPTH,ComponentDrill
T1C1.700
; #@! TA.AperFunction,NonPlated,NPTH,ComponentDrill
T2C4.000
%
G90
G05
T1
X36.98Y-96.7
X37.0Y-77.7
X37.02Y-115.8
X47.14Y-96.7
X47.16Y-77.7
X47.18Y-115.8
X56.02Y-77.7
X56.02Y-96.7
X56.02Y-115.8
X66.18Y-77.7
X66.18Y-96.7
X66.18Y-115.8
X75.12Y-77.7
X75.12Y-96.7
X75.12Y-115.8
X85.28Y-77.7
X85.28Y-96.7
X85.28Y-115.8
X94.22Y-96.7
X94.22Y-115.8
X104.38Y-96.7
X104.38Y-115.8
T2
X42.06Y-96.7
X42.08Y-77.7
X42.1Y-115.8
X61.1Y-77.7
X61.1Y-96.7
X61.1Y-115.8
X80.2Y-77.7
X80.2Y-96.7
X80.2Y-115.8
X99.3Y-96.7
X99.3Y-115.8
M30
