%TF.GenerationSoftware,KiCad,Pcbnew,10.0.0*%
%TF.CreationDate,2026-03-31T21:36:52-07:00*%
%TF.ProjectId,hackpad,6861636b-7061-4642-9e6b-696361645f70,rev?*%
%TF.SameCoordinates,Original*%
%TF.FileFunction,Legend,Top*%
%TF.FilePolarity,Positive*%
%FSLAX46Y46*%
G04 Gerber Fmt 4.6, Leading zero omitted, Abs format (unit mm)*
G04 Created by KiCad (PCBNEW 10.0.0) date 2026-03-31 21:36:52*
%MOMM*%
%LPD*%
G01*
G04 APERTURE LIST*
%ADD10C,0.150000*%
%ADD11C,0.127000*%
%ADD12C,0.200000*%
%ADD13C,0.120000*%
%ADD14C,0.350000*%
%ADD15O,2.800000X1.500000*%
G04 APERTURE END LIST*
D10*
X50174819Y-116427985D02*
X49174819Y-116427985D01*
X49174819Y-116427985D02*
X49174819Y-116189890D01*
X49174819Y-116189890D02*
X49222438Y-116047033D01*
X49222438Y-116047033D02*
X49317676Y-115951795D01*
X49317676Y-115951795D02*
X49412914Y-115904176D01*
X49412914Y-115904176D02*
X49603390Y-115856557D01*
X49603390Y-115856557D02*
X49746247Y-115856557D01*
X49746247Y-115856557D02*
X49936723Y-115904176D01*
X49936723Y-115904176D02*
X50031961Y-115951795D01*
X50031961Y-115951795D02*
X50127200Y-116047033D01*
X50127200Y-116047033D02*
X50174819Y-116189890D01*
X50174819Y-116189890D02*
X50174819Y-116427985D01*
X49270057Y-115475604D02*
X49222438Y-115427985D01*
X49222438Y-115427985D02*
X49174819Y-115332747D01*
X49174819Y-115332747D02*
X49174819Y-115094652D01*
X49174819Y-115094652D02*
X49222438Y-114999414D01*
X49222438Y-114999414D02*
X49270057Y-114951795D01*
X49270057Y-114951795D02*
X49365295Y-114904176D01*
X49365295Y-114904176D02*
X49460533Y-114904176D01*
X49460533Y-114904176D02*
X49603390Y-114951795D01*
X49603390Y-114951795D02*
X50174819Y-115523223D01*
X50174819Y-115523223D02*
X50174819Y-114904176D01*
X49174819Y-114570842D02*
X49174819Y-113904176D01*
X49174819Y-113904176D02*
X50174819Y-114332747D01*
X32449819Y-78327985D02*
X31449819Y-78327985D01*
X31449819Y-78327985D02*
X31449819Y-78089890D01*
X31449819Y-78089890D02*
X31497438Y-77947033D01*
X31497438Y-77947033D02*
X31592676Y-77851795D01*
X31592676Y-77851795D02*
X31687914Y-77804176D01*
X31687914Y-77804176D02*
X31878390Y-77756557D01*
X31878390Y-77756557D02*
X32021247Y-77756557D01*
X32021247Y-77756557D02*
X32211723Y-77804176D01*
X32211723Y-77804176D02*
X32306961Y-77851795D01*
X32306961Y-77851795D02*
X32402200Y-77947033D01*
X32402200Y-77947033D02*
X32449819Y-78089890D01*
X32449819Y-78089890D02*
X32449819Y-78327985D01*
X32449819Y-76804176D02*
X32449819Y-77375604D01*
X32449819Y-77089890D02*
X31449819Y-77089890D01*
X31449819Y-77089890D02*
X31592676Y-77185128D01*
X31592676Y-77185128D02*
X31687914Y-77280366D01*
X31687914Y-77280366D02*
X31735533Y-77375604D01*
X31449819Y-75947033D02*
X31449819Y-76137509D01*
X31449819Y-76137509D02*
X31497438Y-76232747D01*
X31497438Y-76232747D02*
X31545057Y-76280366D01*
X31545057Y-76280366D02*
X31687914Y-76375604D01*
X31687914Y-76375604D02*
X31878390Y-76423223D01*
X31878390Y-76423223D02*
X32259342Y-76423223D01*
X32259342Y-76423223D02*
X32354580Y-76375604D01*
X32354580Y-76375604D02*
X32402200Y-76327985D01*
X32402200Y-76327985D02*
X32449819Y-76232747D01*
X32449819Y-76232747D02*
X32449819Y-76042271D01*
X32449819Y-76042271D02*
X32402200Y-75947033D01*
X32402200Y-75947033D02*
X32354580Y-75899414D01*
X32354580Y-75899414D02*
X32259342Y-75851795D01*
X32259342Y-75851795D02*
X32021247Y-75851795D01*
X32021247Y-75851795D02*
X31926009Y-75899414D01*
X31926009Y-75899414D02*
X31878390Y-75947033D01*
X31878390Y-75947033D02*
X31830771Y-76042271D01*
X31830771Y-76042271D02*
X31830771Y-76232747D01*
X31830771Y-76232747D02*
X31878390Y-76327985D01*
X31878390Y-76327985D02*
X31926009Y-76375604D01*
X31926009Y-76375604D02*
X32021247Y-76423223D01*
X40290476Y-108333200D02*
X40433333Y-108380819D01*
X40433333Y-108380819D02*
X40671428Y-108380819D01*
X40671428Y-108380819D02*
X40766666Y-108333200D01*
X40766666Y-108333200D02*
X40814285Y-108285580D01*
X40814285Y-108285580D02*
X40861904Y-108190342D01*
X40861904Y-108190342D02*
X40861904Y-108095104D01*
X40861904Y-108095104D02*
X40814285Y-107999866D01*
X40814285Y-107999866D02*
X40766666Y-107952247D01*
X40766666Y-107952247D02*
X40671428Y-107904628D01*
X40671428Y-107904628D02*
X40480952Y-107857009D01*
X40480952Y-107857009D02*
X40385714Y-107809390D01*
X40385714Y-107809390D02*
X40338095Y-107761771D01*
X40338095Y-107761771D02*
X40290476Y-107666533D01*
X40290476Y-107666533D02*
X40290476Y-107571295D01*
X40290476Y-107571295D02*
X40338095Y-107476057D01*
X40338095Y-107476057D02*
X40385714Y-107428438D01*
X40385714Y-107428438D02*
X40480952Y-107380819D01*
X40480952Y-107380819D02*
X40719047Y-107380819D01*
X40719047Y-107380819D02*
X40861904Y-107428438D01*
X41195238Y-107380819D02*
X41433333Y-108380819D01*
X41433333Y-108380819D02*
X41623809Y-107666533D01*
X41623809Y-107666533D02*
X41814285Y-108380819D01*
X41814285Y-108380819D02*
X42052381Y-107380819D01*
X42957142Y-108380819D02*
X42385714Y-108380819D01*
X42671428Y-108380819D02*
X42671428Y-107380819D01*
X42671428Y-107380819D02*
X42576190Y-107523676D01*
X42576190Y-107523676D02*
X42480952Y-107618914D01*
X42480952Y-107618914D02*
X42385714Y-107666533D01*
X43338095Y-107476057D02*
X43385714Y-107428438D01*
X43385714Y-107428438D02*
X43480952Y-107380819D01*
X43480952Y-107380819D02*
X43719047Y-107380819D01*
X43719047Y-107380819D02*
X43814285Y-107428438D01*
X43814285Y-107428438D02*
X43861904Y-107476057D01*
X43861904Y-107476057D02*
X43909523Y-107571295D01*
X43909523Y-107571295D02*
X43909523Y-107666533D01*
X43909523Y-107666533D02*
X43861904Y-107809390D01*
X43861904Y-107809390D02*
X43290476Y-108380819D01*
X43290476Y-108380819D02*
X43909523Y-108380819D01*
X69199819Y-97346785D02*
X68199819Y-97346785D01*
X68199819Y-97346785D02*
X68199819Y-97108690D01*
X68199819Y-97108690D02*
X68247438Y-96965833D01*
X68247438Y-96965833D02*
X68342676Y-96870595D01*
X68342676Y-96870595D02*
X68437914Y-96822976D01*
X68437914Y-96822976D02*
X68628390Y-96775357D01*
X68628390Y-96775357D02*
X68771247Y-96775357D01*
X68771247Y-96775357D02*
X68961723Y-96822976D01*
X68961723Y-96822976D02*
X69056961Y-96870595D01*
X69056961Y-96870595D02*
X69152200Y-96965833D01*
X69152200Y-96965833D02*
X69199819Y-97108690D01*
X69199819Y-97108690D02*
X69199819Y-97346785D01*
X68295057Y-96394404D02*
X68247438Y-96346785D01*
X68247438Y-96346785D02*
X68199819Y-96251547D01*
X68199819Y-96251547D02*
X68199819Y-96013452D01*
X68199819Y-96013452D02*
X68247438Y-95918214D01*
X68247438Y-95918214D02*
X68295057Y-95870595D01*
X68295057Y-95870595D02*
X68390295Y-95822976D01*
X68390295Y-95822976D02*
X68485533Y-95822976D01*
X68485533Y-95822976D02*
X68628390Y-95870595D01*
X68628390Y-95870595D02*
X69199819Y-96442023D01*
X69199819Y-96442023D02*
X69199819Y-95822976D01*
X68199819Y-95489642D02*
X68199819Y-94870595D01*
X68199819Y-94870595D02*
X68580771Y-95203928D01*
X68580771Y-95203928D02*
X68580771Y-95061071D01*
X68580771Y-95061071D02*
X68628390Y-94965833D01*
X68628390Y-94965833D02*
X68676009Y-94918214D01*
X68676009Y-94918214D02*
X68771247Y-94870595D01*
X68771247Y-94870595D02*
X69009342Y-94870595D01*
X69009342Y-94870595D02*
X69104580Y-94918214D01*
X69104580Y-94918214D02*
X69152200Y-94965833D01*
X69152200Y-94965833D02*
X69199819Y-95061071D01*
X69199819Y-95061071D02*
X69199819Y-95346785D01*
X69199819Y-95346785D02*
X69152200Y-95442023D01*
X69152200Y-95442023D02*
X69104580Y-95489642D01*
X93966667Y-70807200D02*
X94109524Y-70854819D01*
X94109524Y-70854819D02*
X94347619Y-70854819D01*
X94347619Y-70854819D02*
X94442857Y-70807200D01*
X94442857Y-70807200D02*
X94490476Y-70759580D01*
X94490476Y-70759580D02*
X94538095Y-70664342D01*
X94538095Y-70664342D02*
X94538095Y-70569104D01*
X94538095Y-70569104D02*
X94490476Y-70473866D01*
X94490476Y-70473866D02*
X94442857Y-70426247D01*
X94442857Y-70426247D02*
X94347619Y-70378628D01*
X94347619Y-70378628D02*
X94157143Y-70331009D01*
X94157143Y-70331009D02*
X94061905Y-70283390D01*
X94061905Y-70283390D02*
X94014286Y-70235771D01*
X94014286Y-70235771D02*
X93966667Y-70140533D01*
X93966667Y-70140533D02*
X93966667Y-70045295D01*
X93966667Y-70045295D02*
X94014286Y-69950057D01*
X94014286Y-69950057D02*
X94061905Y-69902438D01*
X94061905Y-69902438D02*
X94157143Y-69854819D01*
X94157143Y-69854819D02*
X94395238Y-69854819D01*
X94395238Y-69854819D02*
X94538095Y-69902438D01*
X94871429Y-69854819D02*
X95109524Y-70854819D01*
X95109524Y-70854819D02*
X95300000Y-70140533D01*
X95300000Y-70140533D02*
X95490476Y-70854819D01*
X95490476Y-70854819D02*
X95728572Y-69854819D01*
X96538095Y-70188152D02*
X96538095Y-70854819D01*
X96300000Y-69807200D02*
X96061905Y-70521485D01*
X96061905Y-70521485D02*
X96680952Y-70521485D01*
X59766667Y-89233200D02*
X59909524Y-89280819D01*
X59909524Y-89280819D02*
X60147619Y-89280819D01*
X60147619Y-89280819D02*
X60242857Y-89233200D01*
X60242857Y-89233200D02*
X60290476Y-89185580D01*
X60290476Y-89185580D02*
X60338095Y-89090342D01*
X60338095Y-89090342D02*
X60338095Y-88995104D01*
X60338095Y-88995104D02*
X60290476Y-88899866D01*
X60290476Y-88899866D02*
X60242857Y-88852247D01*
X60242857Y-88852247D02*
X60147619Y-88804628D01*
X60147619Y-88804628D02*
X59957143Y-88757009D01*
X59957143Y-88757009D02*
X59861905Y-88709390D01*
X59861905Y-88709390D02*
X59814286Y-88661771D01*
X59814286Y-88661771D02*
X59766667Y-88566533D01*
X59766667Y-88566533D02*
X59766667Y-88471295D01*
X59766667Y-88471295D02*
X59814286Y-88376057D01*
X59814286Y-88376057D02*
X59861905Y-88328438D01*
X59861905Y-88328438D02*
X59957143Y-88280819D01*
X59957143Y-88280819D02*
X60195238Y-88280819D01*
X60195238Y-88280819D02*
X60338095Y-88328438D01*
X60671429Y-88280819D02*
X60909524Y-89280819D01*
X60909524Y-89280819D02*
X61100000Y-88566533D01*
X61100000Y-88566533D02*
X61290476Y-89280819D01*
X61290476Y-89280819D02*
X61528572Y-88280819D01*
X62052381Y-88709390D02*
X61957143Y-88661771D01*
X61957143Y-88661771D02*
X61909524Y-88614152D01*
X61909524Y-88614152D02*
X61861905Y-88518914D01*
X61861905Y-88518914D02*
X61861905Y-88471295D01*
X61861905Y-88471295D02*
X61909524Y-88376057D01*
X61909524Y-88376057D02*
X61957143Y-88328438D01*
X61957143Y-88328438D02*
X62052381Y-88280819D01*
X62052381Y-88280819D02*
X62242857Y-88280819D01*
X62242857Y-88280819D02*
X62338095Y-88328438D01*
X62338095Y-88328438D02*
X62385714Y-88376057D01*
X62385714Y-88376057D02*
X62433333Y-88471295D01*
X62433333Y-88471295D02*
X62433333Y-88518914D01*
X62433333Y-88518914D02*
X62385714Y-88614152D01*
X62385714Y-88614152D02*
X62338095Y-88661771D01*
X62338095Y-88661771D02*
X62242857Y-88709390D01*
X62242857Y-88709390D02*
X62052381Y-88709390D01*
X62052381Y-88709390D02*
X61957143Y-88757009D01*
X61957143Y-88757009D02*
X61909524Y-88804628D01*
X61909524Y-88804628D02*
X61861905Y-88899866D01*
X61861905Y-88899866D02*
X61861905Y-89090342D01*
X61861905Y-89090342D02*
X61909524Y-89185580D01*
X61909524Y-89185580D02*
X61957143Y-89233200D01*
X61957143Y-89233200D02*
X62052381Y-89280819D01*
X62052381Y-89280819D02*
X62242857Y-89280819D01*
X62242857Y-89280819D02*
X62338095Y-89233200D01*
X62338095Y-89233200D02*
X62385714Y-89185580D01*
X62385714Y-89185580D02*
X62433333Y-89090342D01*
X62433333Y-89090342D02*
X62433333Y-88899866D01*
X62433333Y-88899866D02*
X62385714Y-88804628D01*
X62385714Y-88804628D02*
X62338095Y-88757009D01*
X62338095Y-88757009D02*
X62242857Y-88709390D01*
X59766667Y-70233200D02*
X59909524Y-70280819D01*
X59909524Y-70280819D02*
X60147619Y-70280819D01*
X60147619Y-70280819D02*
X60242857Y-70233200D01*
X60242857Y-70233200D02*
X60290476Y-70185580D01*
X60290476Y-70185580D02*
X60338095Y-70090342D01*
X60338095Y-70090342D02*
X60338095Y-69995104D01*
X60338095Y-69995104D02*
X60290476Y-69899866D01*
X60290476Y-69899866D02*
X60242857Y-69852247D01*
X60242857Y-69852247D02*
X60147619Y-69804628D01*
X60147619Y-69804628D02*
X59957143Y-69757009D01*
X59957143Y-69757009D02*
X59861905Y-69709390D01*
X59861905Y-69709390D02*
X59814286Y-69661771D01*
X59814286Y-69661771D02*
X59766667Y-69566533D01*
X59766667Y-69566533D02*
X59766667Y-69471295D01*
X59766667Y-69471295D02*
X59814286Y-69376057D01*
X59814286Y-69376057D02*
X59861905Y-69328438D01*
X59861905Y-69328438D02*
X59957143Y-69280819D01*
X59957143Y-69280819D02*
X60195238Y-69280819D01*
X60195238Y-69280819D02*
X60338095Y-69328438D01*
X60671429Y-69280819D02*
X60909524Y-70280819D01*
X60909524Y-70280819D02*
X61100000Y-69566533D01*
X61100000Y-69566533D02*
X61290476Y-70280819D01*
X61290476Y-70280819D02*
X61528572Y-69280819D01*
X61861905Y-69376057D02*
X61909524Y-69328438D01*
X61909524Y-69328438D02*
X62004762Y-69280819D01*
X62004762Y-69280819D02*
X62242857Y-69280819D01*
X62242857Y-69280819D02*
X62338095Y-69328438D01*
X62338095Y-69328438D02*
X62385714Y-69376057D01*
X62385714Y-69376057D02*
X62433333Y-69471295D01*
X62433333Y-69471295D02*
X62433333Y-69566533D01*
X62433333Y-69566533D02*
X62385714Y-69709390D01*
X62385714Y-69709390D02*
X61814286Y-70280819D01*
X61814286Y-70280819D02*
X62433333Y-70280819D01*
X50154819Y-78327985D02*
X49154819Y-78327985D01*
X49154819Y-78327985D02*
X49154819Y-78089890D01*
X49154819Y-78089890D02*
X49202438Y-77947033D01*
X49202438Y-77947033D02*
X49297676Y-77851795D01*
X49297676Y-77851795D02*
X49392914Y-77804176D01*
X49392914Y-77804176D02*
X49583390Y-77756557D01*
X49583390Y-77756557D02*
X49726247Y-77756557D01*
X49726247Y-77756557D02*
X49916723Y-77804176D01*
X49916723Y-77804176D02*
X50011961Y-77851795D01*
X50011961Y-77851795D02*
X50107200Y-77947033D01*
X50107200Y-77947033D02*
X50154819Y-78089890D01*
X50154819Y-78089890D02*
X50154819Y-78327985D01*
X50154819Y-76804176D02*
X50154819Y-77375604D01*
X50154819Y-77089890D02*
X49154819Y-77089890D01*
X49154819Y-77089890D02*
X49297676Y-77185128D01*
X49297676Y-77185128D02*
X49392914Y-77280366D01*
X49392914Y-77280366D02*
X49440533Y-77375604D01*
X49154819Y-76470842D02*
X49154819Y-75804176D01*
X49154819Y-75804176D02*
X50154819Y-76232747D01*
X59290476Y-108333200D02*
X59433333Y-108380819D01*
X59433333Y-108380819D02*
X59671428Y-108380819D01*
X59671428Y-108380819D02*
X59766666Y-108333200D01*
X59766666Y-108333200D02*
X59814285Y-108285580D01*
X59814285Y-108285580D02*
X59861904Y-108190342D01*
X59861904Y-108190342D02*
X59861904Y-108095104D01*
X59861904Y-108095104D02*
X59814285Y-107999866D01*
X59814285Y-107999866D02*
X59766666Y-107952247D01*
X59766666Y-107952247D02*
X59671428Y-107904628D01*
X59671428Y-107904628D02*
X59480952Y-107857009D01*
X59480952Y-107857009D02*
X59385714Y-107809390D01*
X59385714Y-107809390D02*
X59338095Y-107761771D01*
X59338095Y-107761771D02*
X59290476Y-107666533D01*
X59290476Y-107666533D02*
X59290476Y-107571295D01*
X59290476Y-107571295D02*
X59338095Y-107476057D01*
X59338095Y-107476057D02*
X59385714Y-107428438D01*
X59385714Y-107428438D02*
X59480952Y-107380819D01*
X59480952Y-107380819D02*
X59719047Y-107380819D01*
X59719047Y-107380819D02*
X59861904Y-107428438D01*
X60195238Y-107380819D02*
X60433333Y-108380819D01*
X60433333Y-108380819D02*
X60623809Y-107666533D01*
X60623809Y-107666533D02*
X60814285Y-108380819D01*
X60814285Y-108380819D02*
X61052381Y-107380819D01*
X61957142Y-108380819D02*
X61385714Y-108380819D01*
X61671428Y-108380819D02*
X61671428Y-107380819D01*
X61671428Y-107380819D02*
X61576190Y-107523676D01*
X61576190Y-107523676D02*
X61480952Y-107618914D01*
X61480952Y-107618914D02*
X61385714Y-107666533D01*
X62290476Y-107380819D02*
X62909523Y-107380819D01*
X62909523Y-107380819D02*
X62576190Y-107761771D01*
X62576190Y-107761771D02*
X62719047Y-107761771D01*
X62719047Y-107761771D02*
X62814285Y-107809390D01*
X62814285Y-107809390D02*
X62861904Y-107857009D01*
X62861904Y-107857009D02*
X62909523Y-107952247D01*
X62909523Y-107952247D02*
X62909523Y-108190342D01*
X62909523Y-108190342D02*
X62861904Y-108285580D01*
X62861904Y-108285580D02*
X62814285Y-108333200D01*
X62814285Y-108333200D02*
X62719047Y-108380819D01*
X62719047Y-108380819D02*
X62433333Y-108380819D01*
X62433333Y-108380819D02*
X62338095Y-108333200D01*
X62338095Y-108333200D02*
X62290476Y-108285580D01*
X32349819Y-97377985D02*
X31349819Y-97377985D01*
X31349819Y-97377985D02*
X31349819Y-97139890D01*
X31349819Y-97139890D02*
X31397438Y-96997033D01*
X31397438Y-96997033D02*
X31492676Y-96901795D01*
X31492676Y-96901795D02*
X31587914Y-96854176D01*
X31587914Y-96854176D02*
X31778390Y-96806557D01*
X31778390Y-96806557D02*
X31921247Y-96806557D01*
X31921247Y-96806557D02*
X32111723Y-96854176D01*
X32111723Y-96854176D02*
X32206961Y-96901795D01*
X32206961Y-96901795D02*
X32302200Y-96997033D01*
X32302200Y-96997033D02*
X32349819Y-97139890D01*
X32349819Y-97139890D02*
X32349819Y-97377985D01*
X31445057Y-96425604D02*
X31397438Y-96377985D01*
X31397438Y-96377985D02*
X31349819Y-96282747D01*
X31349819Y-96282747D02*
X31349819Y-96044652D01*
X31349819Y-96044652D02*
X31397438Y-95949414D01*
X31397438Y-95949414D02*
X31445057Y-95901795D01*
X31445057Y-95901795D02*
X31540295Y-95854176D01*
X31540295Y-95854176D02*
X31635533Y-95854176D01*
X31635533Y-95854176D02*
X31778390Y-95901795D01*
X31778390Y-95901795D02*
X32349819Y-96473223D01*
X32349819Y-96473223D02*
X32349819Y-95854176D01*
X32349819Y-94901795D02*
X32349819Y-95473223D01*
X32349819Y-95187509D02*
X31349819Y-95187509D01*
X31349819Y-95187509D02*
X31492676Y-95282747D01*
X31492676Y-95282747D02*
X31587914Y-95377985D01*
X31587914Y-95377985D02*
X31635533Y-95473223D01*
X64709819Y-56688333D02*
X65424104Y-56688333D01*
X65424104Y-56688333D02*
X65566961Y-56735952D01*
X65566961Y-56735952D02*
X65662200Y-56831190D01*
X65662200Y-56831190D02*
X65709819Y-56974047D01*
X65709819Y-56974047D02*
X65709819Y-57069285D01*
X65709819Y-55688333D02*
X65709819Y-56259761D01*
X65709819Y-55974047D02*
X64709819Y-55974047D01*
X64709819Y-55974047D02*
X64852676Y-56069285D01*
X64852676Y-56069285D02*
X64947914Y-56164523D01*
X64947914Y-56164523D02*
X64995533Y-56259761D01*
X70959819Y-78327985D02*
X69959819Y-78327985D01*
X69959819Y-78327985D02*
X69959819Y-78089890D01*
X69959819Y-78089890D02*
X70007438Y-77947033D01*
X70007438Y-77947033D02*
X70102676Y-77851795D01*
X70102676Y-77851795D02*
X70197914Y-77804176D01*
X70197914Y-77804176D02*
X70388390Y-77756557D01*
X70388390Y-77756557D02*
X70531247Y-77756557D01*
X70531247Y-77756557D02*
X70721723Y-77804176D01*
X70721723Y-77804176D02*
X70816961Y-77851795D01*
X70816961Y-77851795D02*
X70912200Y-77947033D01*
X70912200Y-77947033D02*
X70959819Y-78089890D01*
X70959819Y-78089890D02*
X70959819Y-78327985D01*
X70959819Y-76804176D02*
X70959819Y-77375604D01*
X70959819Y-77089890D02*
X69959819Y-77089890D01*
X69959819Y-77089890D02*
X70102676Y-77185128D01*
X70102676Y-77185128D02*
X70197914Y-77280366D01*
X70197914Y-77280366D02*
X70245533Y-77375604D01*
X70388390Y-76232747D02*
X70340771Y-76327985D01*
X70340771Y-76327985D02*
X70293152Y-76375604D01*
X70293152Y-76375604D02*
X70197914Y-76423223D01*
X70197914Y-76423223D02*
X70150295Y-76423223D01*
X70150295Y-76423223D02*
X70055057Y-76375604D01*
X70055057Y-76375604D02*
X70007438Y-76327985D01*
X70007438Y-76327985D02*
X69959819Y-76232747D01*
X69959819Y-76232747D02*
X69959819Y-76042271D01*
X69959819Y-76042271D02*
X70007438Y-75947033D01*
X70007438Y-75947033D02*
X70055057Y-75899414D01*
X70055057Y-75899414D02*
X70150295Y-75851795D01*
X70150295Y-75851795D02*
X70197914Y-75851795D01*
X70197914Y-75851795D02*
X70293152Y-75899414D01*
X70293152Y-75899414D02*
X70340771Y-75947033D01*
X70340771Y-75947033D02*
X70388390Y-76042271D01*
X70388390Y-76042271D02*
X70388390Y-76232747D01*
X70388390Y-76232747D02*
X70436009Y-76327985D01*
X70436009Y-76327985D02*
X70483628Y-76375604D01*
X70483628Y-76375604D02*
X70578866Y-76423223D01*
X70578866Y-76423223D02*
X70769342Y-76423223D01*
X70769342Y-76423223D02*
X70864580Y-76375604D01*
X70864580Y-76375604D02*
X70912200Y-76327985D01*
X70912200Y-76327985D02*
X70959819Y-76232747D01*
X70959819Y-76232747D02*
X70959819Y-76042271D01*
X70959819Y-76042271D02*
X70912200Y-75947033D01*
X70912200Y-75947033D02*
X70864580Y-75899414D01*
X70864580Y-75899414D02*
X70769342Y-75851795D01*
X70769342Y-75851795D02*
X70578866Y-75851795D01*
X70578866Y-75851795D02*
X70483628Y-75899414D01*
X70483628Y-75899414D02*
X70436009Y-75947033D01*
X70436009Y-75947033D02*
X70388390Y-76042271D01*
X69349819Y-116428285D02*
X68349819Y-116428285D01*
X68349819Y-116428285D02*
X68349819Y-116190190D01*
X68349819Y-116190190D02*
X68397438Y-116047333D01*
X68397438Y-116047333D02*
X68492676Y-115952095D01*
X68492676Y-115952095D02*
X68587914Y-115904476D01*
X68587914Y-115904476D02*
X68778390Y-115856857D01*
X68778390Y-115856857D02*
X68921247Y-115856857D01*
X68921247Y-115856857D02*
X69111723Y-115904476D01*
X69111723Y-115904476D02*
X69206961Y-115952095D01*
X69206961Y-115952095D02*
X69302200Y-116047333D01*
X69302200Y-116047333D02*
X69349819Y-116190190D01*
X69349819Y-116190190D02*
X69349819Y-116428285D01*
X68445057Y-115475904D02*
X68397438Y-115428285D01*
X68397438Y-115428285D02*
X68349819Y-115333047D01*
X68349819Y-115333047D02*
X68349819Y-115094952D01*
X68349819Y-115094952D02*
X68397438Y-114999714D01*
X68397438Y-114999714D02*
X68445057Y-114952095D01*
X68445057Y-114952095D02*
X68540295Y-114904476D01*
X68540295Y-114904476D02*
X68635533Y-114904476D01*
X68635533Y-114904476D02*
X68778390Y-114952095D01*
X68778390Y-114952095D02*
X69349819Y-115523523D01*
X69349819Y-115523523D02*
X69349819Y-114904476D01*
X68778390Y-114333047D02*
X68730771Y-114428285D01*
X68730771Y-114428285D02*
X68683152Y-114475904D01*
X68683152Y-114475904D02*
X68587914Y-114523523D01*
X68587914Y-114523523D02*
X68540295Y-114523523D01*
X68540295Y-114523523D02*
X68445057Y-114475904D01*
X68445057Y-114475904D02*
X68397438Y-114428285D01*
X68397438Y-114428285D02*
X68349819Y-114333047D01*
X68349819Y-114333047D02*
X68349819Y-114142571D01*
X68349819Y-114142571D02*
X68397438Y-114047333D01*
X68397438Y-114047333D02*
X68445057Y-113999714D01*
X68445057Y-113999714D02*
X68540295Y-113952095D01*
X68540295Y-113952095D02*
X68587914Y-113952095D01*
X68587914Y-113952095D02*
X68683152Y-113999714D01*
X68683152Y-113999714D02*
X68730771Y-114047333D01*
X68730771Y-114047333D02*
X68778390Y-114142571D01*
X68778390Y-114142571D02*
X68778390Y-114333047D01*
X68778390Y-114333047D02*
X68826009Y-114428285D01*
X68826009Y-114428285D02*
X68873628Y-114475904D01*
X68873628Y-114475904D02*
X68968866Y-114523523D01*
X68968866Y-114523523D02*
X69159342Y-114523523D01*
X69159342Y-114523523D02*
X69254580Y-114475904D01*
X69254580Y-114475904D02*
X69302200Y-114428285D01*
X69302200Y-114428285D02*
X69349819Y-114333047D01*
X69349819Y-114333047D02*
X69349819Y-114142571D01*
X69349819Y-114142571D02*
X69302200Y-114047333D01*
X69302200Y-114047333D02*
X69254580Y-113999714D01*
X69254580Y-113999714D02*
X69159342Y-113952095D01*
X69159342Y-113952095D02*
X68968866Y-113952095D01*
X68968866Y-113952095D02*
X68873628Y-113999714D01*
X68873628Y-113999714D02*
X68826009Y-114047333D01*
X68826009Y-114047333D02*
X68778390Y-114142571D01*
X88299819Y-97346785D02*
X87299819Y-97346785D01*
X87299819Y-97346785D02*
X87299819Y-97108690D01*
X87299819Y-97108690D02*
X87347438Y-96965833D01*
X87347438Y-96965833D02*
X87442676Y-96870595D01*
X87442676Y-96870595D02*
X87537914Y-96822976D01*
X87537914Y-96822976D02*
X87728390Y-96775357D01*
X87728390Y-96775357D02*
X87871247Y-96775357D01*
X87871247Y-96775357D02*
X88061723Y-96822976D01*
X88061723Y-96822976D02*
X88156961Y-96870595D01*
X88156961Y-96870595D02*
X88252200Y-96965833D01*
X88252200Y-96965833D02*
X88299819Y-97108690D01*
X88299819Y-97108690D02*
X88299819Y-97346785D01*
X87395057Y-96394404D02*
X87347438Y-96346785D01*
X87347438Y-96346785D02*
X87299819Y-96251547D01*
X87299819Y-96251547D02*
X87299819Y-96013452D01*
X87299819Y-96013452D02*
X87347438Y-95918214D01*
X87347438Y-95918214D02*
X87395057Y-95870595D01*
X87395057Y-95870595D02*
X87490295Y-95822976D01*
X87490295Y-95822976D02*
X87585533Y-95822976D01*
X87585533Y-95822976D02*
X87728390Y-95870595D01*
X87728390Y-95870595D02*
X88299819Y-96442023D01*
X88299819Y-96442023D02*
X88299819Y-95822976D01*
X87633152Y-94965833D02*
X88299819Y-94965833D01*
X87252200Y-95203928D02*
X87966485Y-95442023D01*
X87966485Y-95442023D02*
X87966485Y-94822976D01*
X40746667Y-70233200D02*
X40889524Y-70280819D01*
X40889524Y-70280819D02*
X41127619Y-70280819D01*
X41127619Y-70280819D02*
X41222857Y-70233200D01*
X41222857Y-70233200D02*
X41270476Y-70185580D01*
X41270476Y-70185580D02*
X41318095Y-70090342D01*
X41318095Y-70090342D02*
X41318095Y-69995104D01*
X41318095Y-69995104D02*
X41270476Y-69899866D01*
X41270476Y-69899866D02*
X41222857Y-69852247D01*
X41222857Y-69852247D02*
X41127619Y-69804628D01*
X41127619Y-69804628D02*
X40937143Y-69757009D01*
X40937143Y-69757009D02*
X40841905Y-69709390D01*
X40841905Y-69709390D02*
X40794286Y-69661771D01*
X40794286Y-69661771D02*
X40746667Y-69566533D01*
X40746667Y-69566533D02*
X40746667Y-69471295D01*
X40746667Y-69471295D02*
X40794286Y-69376057D01*
X40794286Y-69376057D02*
X40841905Y-69328438D01*
X40841905Y-69328438D02*
X40937143Y-69280819D01*
X40937143Y-69280819D02*
X41175238Y-69280819D01*
X41175238Y-69280819D02*
X41318095Y-69328438D01*
X41651429Y-69280819D02*
X41889524Y-70280819D01*
X41889524Y-70280819D02*
X42080000Y-69566533D01*
X42080000Y-69566533D02*
X42270476Y-70280819D01*
X42270476Y-70280819D02*
X42508572Y-69280819D01*
X43413333Y-70280819D02*
X42841905Y-70280819D01*
X43127619Y-70280819D02*
X43127619Y-69280819D01*
X43127619Y-69280819D02*
X43032381Y-69423676D01*
X43032381Y-69423676D02*
X42937143Y-69518914D01*
X42937143Y-69518914D02*
X42841905Y-69566533D01*
X97490476Y-108333200D02*
X97633333Y-108380819D01*
X97633333Y-108380819D02*
X97871428Y-108380819D01*
X97871428Y-108380819D02*
X97966666Y-108333200D01*
X97966666Y-108333200D02*
X98014285Y-108285580D01*
X98014285Y-108285580D02*
X98061904Y-108190342D01*
X98061904Y-108190342D02*
X98061904Y-108095104D01*
X98061904Y-108095104D02*
X98014285Y-107999866D01*
X98014285Y-107999866D02*
X97966666Y-107952247D01*
X97966666Y-107952247D02*
X97871428Y-107904628D01*
X97871428Y-107904628D02*
X97680952Y-107857009D01*
X97680952Y-107857009D02*
X97585714Y-107809390D01*
X97585714Y-107809390D02*
X97538095Y-107761771D01*
X97538095Y-107761771D02*
X97490476Y-107666533D01*
X97490476Y-107666533D02*
X97490476Y-107571295D01*
X97490476Y-107571295D02*
X97538095Y-107476057D01*
X97538095Y-107476057D02*
X97585714Y-107428438D01*
X97585714Y-107428438D02*
X97680952Y-107380819D01*
X97680952Y-107380819D02*
X97919047Y-107380819D01*
X97919047Y-107380819D02*
X98061904Y-107428438D01*
X98395238Y-107380819D02*
X98633333Y-108380819D01*
X98633333Y-108380819D02*
X98823809Y-107666533D01*
X98823809Y-107666533D02*
X99014285Y-108380819D01*
X99014285Y-108380819D02*
X99252381Y-107380819D01*
X100157142Y-108380819D02*
X99585714Y-108380819D01*
X99871428Y-108380819D02*
X99871428Y-107380819D01*
X99871428Y-107380819D02*
X99776190Y-107523676D01*
X99776190Y-107523676D02*
X99680952Y-107618914D01*
X99680952Y-107618914D02*
X99585714Y-107666533D01*
X101061904Y-107380819D02*
X100585714Y-107380819D01*
X100585714Y-107380819D02*
X100538095Y-107857009D01*
X100538095Y-107857009D02*
X100585714Y-107809390D01*
X100585714Y-107809390D02*
X100680952Y-107761771D01*
X100680952Y-107761771D02*
X100919047Y-107761771D01*
X100919047Y-107761771D02*
X101014285Y-107809390D01*
X101014285Y-107809390D02*
X101061904Y-107857009D01*
X101061904Y-107857009D02*
X101109523Y-107952247D01*
X101109523Y-107952247D02*
X101109523Y-108190342D01*
X101109523Y-108190342D02*
X101061904Y-108285580D01*
X101061904Y-108285580D02*
X101014285Y-108333200D01*
X101014285Y-108333200D02*
X100919047Y-108380819D01*
X100919047Y-108380819D02*
X100680952Y-108380819D01*
X100680952Y-108380819D02*
X100585714Y-108333200D01*
X100585714Y-108333200D02*
X100538095Y-108285580D01*
X32349819Y-116527985D02*
X31349819Y-116527985D01*
X31349819Y-116527985D02*
X31349819Y-116289890D01*
X31349819Y-116289890D02*
X31397438Y-116147033D01*
X31397438Y-116147033D02*
X31492676Y-116051795D01*
X31492676Y-116051795D02*
X31587914Y-116004176D01*
X31587914Y-116004176D02*
X31778390Y-115956557D01*
X31778390Y-115956557D02*
X31921247Y-115956557D01*
X31921247Y-115956557D02*
X32111723Y-116004176D01*
X32111723Y-116004176D02*
X32206961Y-116051795D01*
X32206961Y-116051795D02*
X32302200Y-116147033D01*
X32302200Y-116147033D02*
X32349819Y-116289890D01*
X32349819Y-116289890D02*
X32349819Y-116527985D01*
X31445057Y-115575604D02*
X31397438Y-115527985D01*
X31397438Y-115527985D02*
X31349819Y-115432747D01*
X31349819Y-115432747D02*
X31349819Y-115194652D01*
X31349819Y-115194652D02*
X31397438Y-115099414D01*
X31397438Y-115099414D02*
X31445057Y-115051795D01*
X31445057Y-115051795D02*
X31540295Y-115004176D01*
X31540295Y-115004176D02*
X31635533Y-115004176D01*
X31635533Y-115004176D02*
X31778390Y-115051795D01*
X31778390Y-115051795D02*
X32349819Y-115623223D01*
X32349819Y-115623223D02*
X32349819Y-115004176D01*
X31349819Y-114147033D02*
X31349819Y-114337509D01*
X31349819Y-114337509D02*
X31397438Y-114432747D01*
X31397438Y-114432747D02*
X31445057Y-114480366D01*
X31445057Y-114480366D02*
X31587914Y-114575604D01*
X31587914Y-114575604D02*
X31778390Y-114623223D01*
X31778390Y-114623223D02*
X32159342Y-114623223D01*
X32159342Y-114623223D02*
X32254580Y-114575604D01*
X32254580Y-114575604D02*
X32302200Y-114527985D01*
X32302200Y-114527985D02*
X32349819Y-114432747D01*
X32349819Y-114432747D02*
X32349819Y-114242271D01*
X32349819Y-114242271D02*
X32302200Y-114147033D01*
X32302200Y-114147033D02*
X32254580Y-114099414D01*
X32254580Y-114099414D02*
X32159342Y-114051795D01*
X32159342Y-114051795D02*
X31921247Y-114051795D01*
X31921247Y-114051795D02*
X31826009Y-114099414D01*
X31826009Y-114099414D02*
X31778390Y-114147033D01*
X31778390Y-114147033D02*
X31730771Y-114242271D01*
X31730771Y-114242271D02*
X31730771Y-114432747D01*
X31730771Y-114432747D02*
X31778390Y-114527985D01*
X31778390Y-114527985D02*
X31826009Y-114575604D01*
X31826009Y-114575604D02*
X31921247Y-114623223D01*
X78866667Y-89233200D02*
X79009524Y-89280819D01*
X79009524Y-89280819D02*
X79247619Y-89280819D01*
X79247619Y-89280819D02*
X79342857Y-89233200D01*
X79342857Y-89233200D02*
X79390476Y-89185580D01*
X79390476Y-89185580D02*
X79438095Y-89090342D01*
X79438095Y-89090342D02*
X79438095Y-88995104D01*
X79438095Y-88995104D02*
X79390476Y-88899866D01*
X79390476Y-88899866D02*
X79342857Y-88852247D01*
X79342857Y-88852247D02*
X79247619Y-88804628D01*
X79247619Y-88804628D02*
X79057143Y-88757009D01*
X79057143Y-88757009D02*
X78961905Y-88709390D01*
X78961905Y-88709390D02*
X78914286Y-88661771D01*
X78914286Y-88661771D02*
X78866667Y-88566533D01*
X78866667Y-88566533D02*
X78866667Y-88471295D01*
X78866667Y-88471295D02*
X78914286Y-88376057D01*
X78914286Y-88376057D02*
X78961905Y-88328438D01*
X78961905Y-88328438D02*
X79057143Y-88280819D01*
X79057143Y-88280819D02*
X79295238Y-88280819D01*
X79295238Y-88280819D02*
X79438095Y-88328438D01*
X79771429Y-88280819D02*
X80009524Y-89280819D01*
X80009524Y-89280819D02*
X80200000Y-88566533D01*
X80200000Y-88566533D02*
X80390476Y-89280819D01*
X80390476Y-89280819D02*
X80628572Y-88280819D01*
X81057143Y-89280819D02*
X81247619Y-89280819D01*
X81247619Y-89280819D02*
X81342857Y-89233200D01*
X81342857Y-89233200D02*
X81390476Y-89185580D01*
X81390476Y-89185580D02*
X81485714Y-89042723D01*
X81485714Y-89042723D02*
X81533333Y-88852247D01*
X81533333Y-88852247D02*
X81533333Y-88471295D01*
X81533333Y-88471295D02*
X81485714Y-88376057D01*
X81485714Y-88376057D02*
X81438095Y-88328438D01*
X81438095Y-88328438D02*
X81342857Y-88280819D01*
X81342857Y-88280819D02*
X81152381Y-88280819D01*
X81152381Y-88280819D02*
X81057143Y-88328438D01*
X81057143Y-88328438D02*
X81009524Y-88376057D01*
X81009524Y-88376057D02*
X80961905Y-88471295D01*
X80961905Y-88471295D02*
X80961905Y-88709390D01*
X80961905Y-88709390D02*
X81009524Y-88804628D01*
X81009524Y-88804628D02*
X81057143Y-88852247D01*
X81057143Y-88852247D02*
X81152381Y-88899866D01*
X81152381Y-88899866D02*
X81342857Y-88899866D01*
X81342857Y-88899866D02*
X81438095Y-88852247D01*
X81438095Y-88852247D02*
X81485714Y-88804628D01*
X81485714Y-88804628D02*
X81533333Y-88709390D01*
X40726667Y-89233200D02*
X40869524Y-89280819D01*
X40869524Y-89280819D02*
X41107619Y-89280819D01*
X41107619Y-89280819D02*
X41202857Y-89233200D01*
X41202857Y-89233200D02*
X41250476Y-89185580D01*
X41250476Y-89185580D02*
X41298095Y-89090342D01*
X41298095Y-89090342D02*
X41298095Y-88995104D01*
X41298095Y-88995104D02*
X41250476Y-88899866D01*
X41250476Y-88899866D02*
X41202857Y-88852247D01*
X41202857Y-88852247D02*
X41107619Y-88804628D01*
X41107619Y-88804628D02*
X40917143Y-88757009D01*
X40917143Y-88757009D02*
X40821905Y-88709390D01*
X40821905Y-88709390D02*
X40774286Y-88661771D01*
X40774286Y-88661771D02*
X40726667Y-88566533D01*
X40726667Y-88566533D02*
X40726667Y-88471295D01*
X40726667Y-88471295D02*
X40774286Y-88376057D01*
X40774286Y-88376057D02*
X40821905Y-88328438D01*
X40821905Y-88328438D02*
X40917143Y-88280819D01*
X40917143Y-88280819D02*
X41155238Y-88280819D01*
X41155238Y-88280819D02*
X41298095Y-88328438D01*
X41631429Y-88280819D02*
X41869524Y-89280819D01*
X41869524Y-89280819D02*
X42060000Y-88566533D01*
X42060000Y-88566533D02*
X42250476Y-89280819D01*
X42250476Y-89280819D02*
X42488572Y-88280819D01*
X42774286Y-88280819D02*
X43440952Y-88280819D01*
X43440952Y-88280819D02*
X43012381Y-89280819D01*
X97490476Y-89233200D02*
X97633333Y-89280819D01*
X97633333Y-89280819D02*
X97871428Y-89280819D01*
X97871428Y-89280819D02*
X97966666Y-89233200D01*
X97966666Y-89233200D02*
X98014285Y-89185580D01*
X98014285Y-89185580D02*
X98061904Y-89090342D01*
X98061904Y-89090342D02*
X98061904Y-88995104D01*
X98061904Y-88995104D02*
X98014285Y-88899866D01*
X98014285Y-88899866D02*
X97966666Y-88852247D01*
X97966666Y-88852247D02*
X97871428Y-88804628D01*
X97871428Y-88804628D02*
X97680952Y-88757009D01*
X97680952Y-88757009D02*
X97585714Y-88709390D01*
X97585714Y-88709390D02*
X97538095Y-88661771D01*
X97538095Y-88661771D02*
X97490476Y-88566533D01*
X97490476Y-88566533D02*
X97490476Y-88471295D01*
X97490476Y-88471295D02*
X97538095Y-88376057D01*
X97538095Y-88376057D02*
X97585714Y-88328438D01*
X97585714Y-88328438D02*
X97680952Y-88280819D01*
X97680952Y-88280819D02*
X97919047Y-88280819D01*
X97919047Y-88280819D02*
X98061904Y-88328438D01*
X98395238Y-88280819D02*
X98633333Y-89280819D01*
X98633333Y-89280819D02*
X98823809Y-88566533D01*
X98823809Y-88566533D02*
X99014285Y-89280819D01*
X99014285Y-89280819D02*
X99252381Y-88280819D01*
X100157142Y-89280819D02*
X99585714Y-89280819D01*
X99871428Y-89280819D02*
X99871428Y-88280819D01*
X99871428Y-88280819D02*
X99776190Y-88423676D01*
X99776190Y-88423676D02*
X99680952Y-88518914D01*
X99680952Y-88518914D02*
X99585714Y-88566533D01*
X100776190Y-88280819D02*
X100871428Y-88280819D01*
X100871428Y-88280819D02*
X100966666Y-88328438D01*
X100966666Y-88328438D02*
X101014285Y-88376057D01*
X101014285Y-88376057D02*
X101061904Y-88471295D01*
X101061904Y-88471295D02*
X101109523Y-88661771D01*
X101109523Y-88661771D02*
X101109523Y-88899866D01*
X101109523Y-88899866D02*
X101061904Y-89090342D01*
X101061904Y-89090342D02*
X101014285Y-89185580D01*
X101014285Y-89185580D02*
X100966666Y-89233200D01*
X100966666Y-89233200D02*
X100871428Y-89280819D01*
X100871428Y-89280819D02*
X100776190Y-89280819D01*
X100776190Y-89280819D02*
X100680952Y-89233200D01*
X100680952Y-89233200D02*
X100633333Y-89185580D01*
X100633333Y-89185580D02*
X100585714Y-89090342D01*
X100585714Y-89090342D02*
X100538095Y-88899866D01*
X100538095Y-88899866D02*
X100538095Y-88661771D01*
X100538095Y-88661771D02*
X100585714Y-88471295D01*
X100585714Y-88471295D02*
X100633333Y-88376057D01*
X100633333Y-88376057D02*
X100680952Y-88328438D01*
X100680952Y-88328438D02*
X100776190Y-88280819D01*
X78866667Y-70233200D02*
X79009524Y-70280819D01*
X79009524Y-70280819D02*
X79247619Y-70280819D01*
X79247619Y-70280819D02*
X79342857Y-70233200D01*
X79342857Y-70233200D02*
X79390476Y-70185580D01*
X79390476Y-70185580D02*
X79438095Y-70090342D01*
X79438095Y-70090342D02*
X79438095Y-69995104D01*
X79438095Y-69995104D02*
X79390476Y-69899866D01*
X79390476Y-69899866D02*
X79342857Y-69852247D01*
X79342857Y-69852247D02*
X79247619Y-69804628D01*
X79247619Y-69804628D02*
X79057143Y-69757009D01*
X79057143Y-69757009D02*
X78961905Y-69709390D01*
X78961905Y-69709390D02*
X78914286Y-69661771D01*
X78914286Y-69661771D02*
X78866667Y-69566533D01*
X78866667Y-69566533D02*
X78866667Y-69471295D01*
X78866667Y-69471295D02*
X78914286Y-69376057D01*
X78914286Y-69376057D02*
X78961905Y-69328438D01*
X78961905Y-69328438D02*
X79057143Y-69280819D01*
X79057143Y-69280819D02*
X79295238Y-69280819D01*
X79295238Y-69280819D02*
X79438095Y-69328438D01*
X79771429Y-69280819D02*
X80009524Y-70280819D01*
X80009524Y-70280819D02*
X80200000Y-69566533D01*
X80200000Y-69566533D02*
X80390476Y-70280819D01*
X80390476Y-70280819D02*
X80628572Y-69280819D01*
X80914286Y-69280819D02*
X81533333Y-69280819D01*
X81533333Y-69280819D02*
X81200000Y-69661771D01*
X81200000Y-69661771D02*
X81342857Y-69661771D01*
X81342857Y-69661771D02*
X81438095Y-69709390D01*
X81438095Y-69709390D02*
X81485714Y-69757009D01*
X81485714Y-69757009D02*
X81533333Y-69852247D01*
X81533333Y-69852247D02*
X81533333Y-70090342D01*
X81533333Y-70090342D02*
X81485714Y-70185580D01*
X81485714Y-70185580D02*
X81438095Y-70233200D01*
X81438095Y-70233200D02*
X81342857Y-70280819D01*
X81342857Y-70280819D02*
X81057143Y-70280819D01*
X81057143Y-70280819D02*
X80961905Y-70233200D01*
X80961905Y-70233200D02*
X80914286Y-70185580D01*
X88299819Y-78415285D02*
X87299819Y-78415285D01*
X87299819Y-78415285D02*
X87299819Y-78177190D01*
X87299819Y-78177190D02*
X87347438Y-78034333D01*
X87347438Y-78034333D02*
X87442676Y-77939095D01*
X87442676Y-77939095D02*
X87537914Y-77891476D01*
X87537914Y-77891476D02*
X87728390Y-77843857D01*
X87728390Y-77843857D02*
X87871247Y-77843857D01*
X87871247Y-77843857D02*
X88061723Y-77891476D01*
X88061723Y-77891476D02*
X88156961Y-77939095D01*
X88156961Y-77939095D02*
X88252200Y-78034333D01*
X88252200Y-78034333D02*
X88299819Y-78177190D01*
X88299819Y-78177190D02*
X88299819Y-78415285D01*
X88299819Y-76891476D02*
X88299819Y-77462904D01*
X88299819Y-77177190D02*
X87299819Y-77177190D01*
X87299819Y-77177190D02*
X87442676Y-77272428D01*
X87442676Y-77272428D02*
X87537914Y-77367666D01*
X87537914Y-77367666D02*
X87585533Y-77462904D01*
X88299819Y-76415285D02*
X88299819Y-76224809D01*
X88299819Y-76224809D02*
X88252200Y-76129571D01*
X88252200Y-76129571D02*
X88204580Y-76081952D01*
X88204580Y-76081952D02*
X88061723Y-75986714D01*
X88061723Y-75986714D02*
X87871247Y-75939095D01*
X87871247Y-75939095D02*
X87490295Y-75939095D01*
X87490295Y-75939095D02*
X87395057Y-75986714D01*
X87395057Y-75986714D02*
X87347438Y-76034333D01*
X87347438Y-76034333D02*
X87299819Y-76129571D01*
X87299819Y-76129571D02*
X87299819Y-76320047D01*
X87299819Y-76320047D02*
X87347438Y-76415285D01*
X87347438Y-76415285D02*
X87395057Y-76462904D01*
X87395057Y-76462904D02*
X87490295Y-76510523D01*
X87490295Y-76510523D02*
X87728390Y-76510523D01*
X87728390Y-76510523D02*
X87823628Y-76462904D01*
X87823628Y-76462904D02*
X87871247Y-76415285D01*
X87871247Y-76415285D02*
X87918866Y-76320047D01*
X87918866Y-76320047D02*
X87918866Y-76129571D01*
X87918866Y-76129571D02*
X87871247Y-76034333D01*
X87871247Y-76034333D02*
X87823628Y-75986714D01*
X87823628Y-75986714D02*
X87728390Y-75939095D01*
X78390476Y-108333200D02*
X78533333Y-108380819D01*
X78533333Y-108380819D02*
X78771428Y-108380819D01*
X78771428Y-108380819D02*
X78866666Y-108333200D01*
X78866666Y-108333200D02*
X78914285Y-108285580D01*
X78914285Y-108285580D02*
X78961904Y-108190342D01*
X78961904Y-108190342D02*
X78961904Y-108095104D01*
X78961904Y-108095104D02*
X78914285Y-107999866D01*
X78914285Y-107999866D02*
X78866666Y-107952247D01*
X78866666Y-107952247D02*
X78771428Y-107904628D01*
X78771428Y-107904628D02*
X78580952Y-107857009D01*
X78580952Y-107857009D02*
X78485714Y-107809390D01*
X78485714Y-107809390D02*
X78438095Y-107761771D01*
X78438095Y-107761771D02*
X78390476Y-107666533D01*
X78390476Y-107666533D02*
X78390476Y-107571295D01*
X78390476Y-107571295D02*
X78438095Y-107476057D01*
X78438095Y-107476057D02*
X78485714Y-107428438D01*
X78485714Y-107428438D02*
X78580952Y-107380819D01*
X78580952Y-107380819D02*
X78819047Y-107380819D01*
X78819047Y-107380819D02*
X78961904Y-107428438D01*
X79295238Y-107380819D02*
X79533333Y-108380819D01*
X79533333Y-108380819D02*
X79723809Y-107666533D01*
X79723809Y-107666533D02*
X79914285Y-108380819D01*
X79914285Y-108380819D02*
X80152381Y-107380819D01*
X81057142Y-108380819D02*
X80485714Y-108380819D01*
X80771428Y-108380819D02*
X80771428Y-107380819D01*
X80771428Y-107380819D02*
X80676190Y-107523676D01*
X80676190Y-107523676D02*
X80580952Y-107618914D01*
X80580952Y-107618914D02*
X80485714Y-107666533D01*
X81914285Y-107714152D02*
X81914285Y-108380819D01*
X81676190Y-107333200D02*
X81438095Y-108047485D01*
X81438095Y-108047485D02*
X82057142Y-108047485D01*
X50149819Y-97365285D02*
X49149819Y-97365285D01*
X49149819Y-97365285D02*
X49149819Y-97127190D01*
X49149819Y-97127190D02*
X49197438Y-96984333D01*
X49197438Y-96984333D02*
X49292676Y-96889095D01*
X49292676Y-96889095D02*
X49387914Y-96841476D01*
X49387914Y-96841476D02*
X49578390Y-96793857D01*
X49578390Y-96793857D02*
X49721247Y-96793857D01*
X49721247Y-96793857D02*
X49911723Y-96841476D01*
X49911723Y-96841476D02*
X50006961Y-96889095D01*
X50006961Y-96889095D02*
X50102200Y-96984333D01*
X50102200Y-96984333D02*
X50149819Y-97127190D01*
X50149819Y-97127190D02*
X50149819Y-97365285D01*
X49245057Y-96412904D02*
X49197438Y-96365285D01*
X49197438Y-96365285D02*
X49149819Y-96270047D01*
X49149819Y-96270047D02*
X49149819Y-96031952D01*
X49149819Y-96031952D02*
X49197438Y-95936714D01*
X49197438Y-95936714D02*
X49245057Y-95889095D01*
X49245057Y-95889095D02*
X49340295Y-95841476D01*
X49340295Y-95841476D02*
X49435533Y-95841476D01*
X49435533Y-95841476D02*
X49578390Y-95889095D01*
X49578390Y-95889095D02*
X50149819Y-96460523D01*
X50149819Y-96460523D02*
X50149819Y-95841476D01*
X49245057Y-95460523D02*
X49197438Y-95412904D01*
X49197438Y-95412904D02*
X49149819Y-95317666D01*
X49149819Y-95317666D02*
X49149819Y-95079571D01*
X49149819Y-95079571D02*
X49197438Y-94984333D01*
X49197438Y-94984333D02*
X49245057Y-94936714D01*
X49245057Y-94936714D02*
X49340295Y-94889095D01*
X49340295Y-94889095D02*
X49435533Y-94889095D01*
X49435533Y-94889095D02*
X49578390Y-94936714D01*
X49578390Y-94936714D02*
X50149819Y-95508142D01*
X50149819Y-95508142D02*
X50149819Y-94889095D01*
X29348295Y-66507523D02*
X29995914Y-66507523D01*
X29995914Y-66507523D02*
X30072104Y-66469428D01*
X30072104Y-66469428D02*
X30110200Y-66431333D01*
X30110200Y-66431333D02*
X30148295Y-66355142D01*
X30148295Y-66355142D02*
X30148295Y-66202761D01*
X30148295Y-66202761D02*
X30110200Y-66126571D01*
X30110200Y-66126571D02*
X30072104Y-66088476D01*
X30072104Y-66088476D02*
X29995914Y-66050380D01*
X29995914Y-66050380D02*
X29348295Y-66050380D01*
X30148295Y-65250381D02*
X30148295Y-65707524D01*
X30148295Y-65478952D02*
X29348295Y-65478952D01*
X29348295Y-65478952D02*
X29462580Y-65555143D01*
X29462580Y-65555143D02*
X29538771Y-65631333D01*
X29538771Y-65631333D02*
X29576866Y-65707524D01*
X88374819Y-116428285D02*
X87374819Y-116428285D01*
X87374819Y-116428285D02*
X87374819Y-116190190D01*
X87374819Y-116190190D02*
X87422438Y-116047333D01*
X87422438Y-116047333D02*
X87517676Y-115952095D01*
X87517676Y-115952095D02*
X87612914Y-115904476D01*
X87612914Y-115904476D02*
X87803390Y-115856857D01*
X87803390Y-115856857D02*
X87946247Y-115856857D01*
X87946247Y-115856857D02*
X88136723Y-115904476D01*
X88136723Y-115904476D02*
X88231961Y-115952095D01*
X88231961Y-115952095D02*
X88327200Y-116047333D01*
X88327200Y-116047333D02*
X88374819Y-116190190D01*
X88374819Y-116190190D02*
X88374819Y-116428285D01*
X87470057Y-115475904D02*
X87422438Y-115428285D01*
X87422438Y-115428285D02*
X87374819Y-115333047D01*
X87374819Y-115333047D02*
X87374819Y-115094952D01*
X87374819Y-115094952D02*
X87422438Y-114999714D01*
X87422438Y-114999714D02*
X87470057Y-114952095D01*
X87470057Y-114952095D02*
X87565295Y-114904476D01*
X87565295Y-114904476D02*
X87660533Y-114904476D01*
X87660533Y-114904476D02*
X87803390Y-114952095D01*
X87803390Y-114952095D02*
X88374819Y-115523523D01*
X88374819Y-115523523D02*
X88374819Y-114904476D01*
X88374819Y-114428285D02*
X88374819Y-114237809D01*
X88374819Y-114237809D02*
X88327200Y-114142571D01*
X88327200Y-114142571D02*
X88279580Y-114094952D01*
X88279580Y-114094952D02*
X88136723Y-113999714D01*
X88136723Y-113999714D02*
X87946247Y-113952095D01*
X87946247Y-113952095D02*
X87565295Y-113952095D01*
X87565295Y-113952095D02*
X87470057Y-113999714D01*
X87470057Y-113999714D02*
X87422438Y-114047333D01*
X87422438Y-114047333D02*
X87374819Y-114142571D01*
X87374819Y-114142571D02*
X87374819Y-114333047D01*
X87374819Y-114333047D02*
X87422438Y-114428285D01*
X87422438Y-114428285D02*
X87470057Y-114475904D01*
X87470057Y-114475904D02*
X87565295Y-114523523D01*
X87565295Y-114523523D02*
X87803390Y-114523523D01*
X87803390Y-114523523D02*
X87898628Y-114475904D01*
X87898628Y-114475904D02*
X87946247Y-114428285D01*
X87946247Y-114428285D02*
X87993866Y-114333047D01*
X87993866Y-114333047D02*
X87993866Y-114142571D01*
X87993866Y-114142571D02*
X87946247Y-114047333D01*
X87946247Y-114047333D02*
X87898628Y-113999714D01*
X87898628Y-113999714D02*
X87803390Y-113952095D01*
%TO.C,D27*%
D11*
X50765000Y-113628700D02*
X52485000Y-113628700D01*
X50765000Y-117433700D02*
X50765000Y-113628700D01*
X52485000Y-113628700D02*
X52485000Y-117433700D01*
X52485000Y-117433700D02*
X50765000Y-117433700D01*
D12*
X51725000Y-120531200D02*
G75*
G02*
X51525000Y-120531200I-100000J0D01*
G01*
X51525000Y-120531200D02*
G75*
G02*
X51725000Y-120531200I100000J0D01*
G01*
%TO.C,D16*%
D11*
X33040000Y-75528700D02*
X34760000Y-75528700D01*
X33040000Y-79333700D02*
X33040000Y-75528700D01*
X34760000Y-75528700D02*
X34760000Y-79333700D01*
X34760000Y-79333700D02*
X33040000Y-79333700D01*
D12*
X34000000Y-82431200D02*
G75*
G02*
X33800000Y-82431200I-100000J0D01*
G01*
X33800000Y-82431200D02*
G75*
G02*
X34000000Y-82431200I100000J0D01*
G01*
%TO.C,SW12*%
D13*
X35115000Y-108815000D02*
X49085000Y-108815000D01*
X35115000Y-122785000D02*
X35115000Y-108815000D01*
X49085000Y-108815000D02*
X49085000Y-122785000D01*
X49085000Y-122785000D02*
X35115000Y-122785000D01*
%TO.C,D23*%
D11*
X69790000Y-94547500D02*
X71510000Y-94547500D01*
X69790000Y-98352500D02*
X69790000Y-94547500D01*
X71510000Y-94547500D02*
X71510000Y-98352500D01*
X71510000Y-98352500D02*
X69790000Y-98352500D01*
D12*
X70750000Y-101450000D02*
G75*
G02*
X70550000Y-101450000I-100000J0D01*
G01*
X70550000Y-101450000D02*
G75*
G02*
X70750000Y-101450000I100000J0D01*
G01*
%TO.C,SW4*%
D13*
X92200000Y-73500000D02*
X92800000Y-73500000D01*
X92500000Y-73800000D02*
X92200000Y-73500000D01*
X92800000Y-73500000D02*
X92500000Y-73800000D01*
X93900000Y-71700000D02*
X93900000Y-83500000D01*
X98000000Y-71700000D02*
X93900000Y-71700000D01*
X98000000Y-83500000D02*
X93900000Y-83500000D01*
X99500000Y-77600000D02*
X100500000Y-77600000D01*
X100000000Y-77100000D02*
X100000000Y-78100000D01*
X102000000Y-71700000D02*
X106100000Y-71700000D01*
X106100000Y-71700000D02*
X106100000Y-74100000D01*
X106100000Y-76300000D02*
X106100000Y-78900000D01*
X106100000Y-81100000D02*
X106100000Y-83500000D01*
X106100000Y-83500000D02*
X102000000Y-83500000D01*
X103000000Y-77600000D02*
G75*
G02*
X97000000Y-77600000I-3000000J0D01*
G01*
X97000000Y-77600000D02*
G75*
G02*
X103000000Y-77600000I3000000J0D01*
G01*
%TO.C,SW8*%
X54115000Y-89715000D02*
X68085000Y-89715000D01*
X54115000Y-103685000D02*
X54115000Y-89715000D01*
X68085000Y-89715000D02*
X68085000Y-103685000D01*
X68085000Y-103685000D02*
X54115000Y-103685000D01*
%TO.C,SW2*%
X54115000Y-70715000D02*
X68085000Y-70715000D01*
X54115000Y-84685000D02*
X54115000Y-70715000D01*
X68085000Y-70715000D02*
X68085000Y-84685000D01*
X68085000Y-84685000D02*
X54115000Y-84685000D01*
%TO.C,D17*%
D11*
X50745000Y-75528700D02*
X52465000Y-75528700D01*
X50745000Y-79333700D02*
X50745000Y-75528700D01*
X52465000Y-75528700D02*
X52465000Y-79333700D01*
X52465000Y-79333700D02*
X50745000Y-79333700D01*
D12*
X51705000Y-82431200D02*
G75*
G02*
X51505000Y-82431200I-100000J0D01*
G01*
X51505000Y-82431200D02*
G75*
G02*
X51705000Y-82431200I100000J0D01*
G01*
%TO.C,SW13*%
D13*
X54115000Y-108815000D02*
X68085000Y-108815000D01*
X54115000Y-122785000D02*
X54115000Y-108815000D01*
X68085000Y-108815000D02*
X68085000Y-122785000D01*
X68085000Y-122785000D02*
X54115000Y-122785000D01*
%TO.C,D21*%
D11*
X32940000Y-94578700D02*
X34660000Y-94578700D01*
X32940000Y-98383700D02*
X32940000Y-94578700D01*
X34660000Y-94578700D02*
X34660000Y-98383700D01*
X34660000Y-98383700D02*
X32940000Y-98383700D01*
D12*
X33900000Y-101481200D02*
G75*
G02*
X33700000Y-101481200I-100000J0D01*
G01*
X33700000Y-101481200D02*
G75*
G02*
X33900000Y-101481200I100000J0D01*
G01*
%TO.C,J1*%
X60830000Y-54180000D02*
X63370000Y-54180000D01*
X60830000Y-64340000D02*
X60830000Y-54180000D01*
X63370000Y-64340000D02*
X60830000Y-64340000D01*
X63370000Y-64340000D02*
X63370000Y-54180000D01*
X62200000Y-53530000D02*
G75*
G02*
X62000000Y-53530000I-100000J0D01*
G01*
X62000000Y-53530000D02*
G75*
G02*
X62200000Y-53530000I100000J0D01*
G01*
%TO.C,D18*%
D11*
X69815000Y-75528700D02*
X71535000Y-75528700D01*
X69815000Y-79333700D02*
X69815000Y-75528700D01*
X71535000Y-75528700D02*
X71535000Y-79333700D01*
X71535000Y-79333700D02*
X69815000Y-79333700D01*
D12*
X70775000Y-82431200D02*
G75*
G02*
X70575000Y-82431200I-100000J0D01*
G01*
X70575000Y-82431200D02*
G75*
G02*
X70775000Y-82431200I100000J0D01*
G01*
%TO.C,D28*%
D11*
X69940000Y-113629000D02*
X71660000Y-113629000D01*
X69940000Y-117434000D02*
X69940000Y-113629000D01*
X71660000Y-113629000D02*
X71660000Y-117434000D01*
X71660000Y-117434000D02*
X69940000Y-117434000D01*
D12*
X70900000Y-120531500D02*
G75*
G02*
X70700000Y-120531500I-100000J0D01*
G01*
X70700000Y-120531500D02*
G75*
G02*
X70900000Y-120531500I100000J0D01*
G01*
%TO.C,D24*%
D11*
X88890000Y-94547500D02*
X90610000Y-94547500D01*
X88890000Y-98352500D02*
X88890000Y-94547500D01*
X90610000Y-94547500D02*
X90610000Y-98352500D01*
X90610000Y-98352500D02*
X88890000Y-98352500D01*
D12*
X89850000Y-101450000D02*
G75*
G02*
X89650000Y-101450000I-100000J0D01*
G01*
X89650000Y-101450000D02*
G75*
G02*
X89850000Y-101450000I100000J0D01*
G01*
%TO.C,SW1*%
D13*
X35095000Y-70715000D02*
X49065000Y-70715000D01*
X35095000Y-84685000D02*
X35095000Y-70715000D01*
X49065000Y-70715000D02*
X49065000Y-84685000D01*
X49065000Y-84685000D02*
X35095000Y-84685000D01*
%TO.C,SW15*%
X92315000Y-108815000D02*
X106285000Y-108815000D01*
X92315000Y-122785000D02*
X92315000Y-108815000D01*
X106285000Y-108815000D02*
X106285000Y-122785000D01*
X106285000Y-122785000D02*
X92315000Y-122785000D01*
%TO.C,D26*%
D11*
X32940000Y-113728700D02*
X34660000Y-113728700D01*
X32940000Y-117533700D02*
X32940000Y-113728700D01*
X34660000Y-113728700D02*
X34660000Y-117533700D01*
X34660000Y-117533700D02*
X32940000Y-117533700D01*
D12*
X33900000Y-120631200D02*
G75*
G02*
X33700000Y-120631200I-100000J0D01*
G01*
X33700000Y-120631200D02*
G75*
G02*
X33900000Y-120631200I100000J0D01*
G01*
%TO.C,SW9*%
D13*
X73215000Y-89715000D02*
X87185000Y-89715000D01*
X73215000Y-103685000D02*
X73215000Y-89715000D01*
X87185000Y-89715000D02*
X87185000Y-103685000D01*
X87185000Y-103685000D02*
X73215000Y-103685000D01*
%TO.C,SW7*%
X35075000Y-89715000D02*
X49045000Y-89715000D01*
X35075000Y-103685000D02*
X35075000Y-89715000D01*
X49045000Y-89715000D02*
X49045000Y-103685000D01*
X49045000Y-103685000D02*
X35075000Y-103685000D01*
%TO.C,SW10*%
X92315000Y-89715000D02*
X106285000Y-89715000D01*
X92315000Y-103685000D02*
X92315000Y-89715000D01*
X106285000Y-89715000D02*
X106285000Y-103685000D01*
X106285000Y-103685000D02*
X92315000Y-103685000D01*
%TO.C,SW3*%
X73215000Y-70715000D02*
X87185000Y-70715000D01*
X73215000Y-84685000D02*
X73215000Y-70715000D01*
X87185000Y-70715000D02*
X87185000Y-84685000D01*
X87185000Y-84685000D02*
X73215000Y-84685000D01*
%TO.C,D19*%
D11*
X88890000Y-75616000D02*
X90610000Y-75616000D01*
X88890000Y-79421000D02*
X88890000Y-75616000D01*
X90610000Y-75616000D02*
X90610000Y-79421000D01*
X90610000Y-79421000D02*
X88890000Y-79421000D01*
D12*
X89850000Y-82518500D02*
G75*
G02*
X89650000Y-82518500I-100000J0D01*
G01*
X89650000Y-82518500D02*
G75*
G02*
X89850000Y-82518500I100000J0D01*
G01*
%TO.C,SW14*%
D13*
X73215000Y-108815000D02*
X87185000Y-108815000D01*
X73215000Y-122785000D02*
X73215000Y-108815000D01*
X87185000Y-108815000D02*
X87185000Y-122785000D01*
X87185000Y-122785000D02*
X73215000Y-122785000D01*
%TO.C,D22*%
D11*
X50740000Y-94566000D02*
X52460000Y-94566000D01*
X50740000Y-98371000D02*
X50740000Y-94566000D01*
X52460000Y-94566000D02*
X52460000Y-98371000D01*
X52460000Y-98371000D02*
X50740000Y-98371000D01*
D12*
X51700000Y-101468500D02*
G75*
G02*
X51500000Y-101468500I-100000J0D01*
G01*
X51500000Y-101468500D02*
G75*
G02*
X51700000Y-101468500I100000J0D01*
G01*
%TO.C,U1*%
D11*
X31356000Y-64500000D02*
X31356000Y-55505000D01*
X31380000Y-55500000D02*
X32780000Y-55500000D01*
X32780000Y-51100000D02*
X34280000Y-51100000D01*
X32780000Y-55500000D02*
X32780000Y-51100000D01*
X32780000Y-64500000D02*
X31380000Y-64500000D01*
X32780000Y-68900000D02*
X32780000Y-64500000D01*
X34280000Y-68900000D02*
X32780000Y-68900000D01*
X52250000Y-68900000D02*
X53780000Y-68900000D01*
X53780000Y-51100000D02*
X52250000Y-51100000D01*
X53780000Y-68900000D02*
X53780000Y-51100000D01*
D12*
X35489000Y-70229000D02*
G75*
G02*
X35289000Y-70229000I-100000J0D01*
G01*
X35289000Y-70229000D02*
G75*
G02*
X35489000Y-70229000I100000J0D01*
G01*
%TO.C,D29*%
D11*
X88965000Y-113629000D02*
X90685000Y-113629000D01*
X88965000Y-117434000D02*
X88965000Y-113629000D01*
X90685000Y-113629000D02*
X90685000Y-117434000D01*
X90685000Y-117434000D02*
X88965000Y-117434000D01*
D12*
X89925000Y-120531500D02*
G75*
G02*
X89725000Y-120531500I-100000J0D01*
G01*
X89725000Y-120531500D02*
G75*
G02*
X89925000Y-120531500I100000J0D01*
G01*
%TD*%
D14*
X51625000Y-111762700D03*
X51625000Y-119299700D03*
X33900000Y-73662700D03*
X33900000Y-81199700D03*
X37020000Y-115800000D03*
X42100000Y-115800000D03*
X47180000Y-115800000D03*
X44640000Y-110720000D03*
X38290000Y-113260000D03*
X70650000Y-92681500D03*
X70650000Y-100218500D03*
X92500000Y-75100000D03*
X92500000Y-80100000D03*
X92500000Y-77600000D03*
D15*
X100000000Y-72000000D03*
X100000000Y-83200000D03*
D14*
X107000000Y-80100000D03*
X107000000Y-75100000D03*
X56020000Y-96700000D03*
X61100000Y-96700000D03*
X66180000Y-96700000D03*
X63640000Y-91620000D03*
X57290000Y-94160000D03*
X56020000Y-77700000D03*
X61100000Y-77700000D03*
X66180000Y-77700000D03*
X63640000Y-72620000D03*
X57290000Y-75160000D03*
X51605000Y-73662700D03*
X51605000Y-81199700D03*
X56020000Y-115800000D03*
X61100000Y-115800000D03*
X66180000Y-115800000D03*
X63640000Y-110720000D03*
X57290000Y-113260000D03*
X33800000Y-92712700D03*
X33800000Y-100249700D03*
X62100000Y-55450000D03*
X62100000Y-57990000D03*
X62100000Y-60530000D03*
X62100000Y-63070000D03*
X70675000Y-73662700D03*
X70675000Y-81199700D03*
X70800000Y-111763000D03*
X70800000Y-119300000D03*
X89750000Y-92681500D03*
X89750000Y-100218500D03*
X37000000Y-77700000D03*
X42080000Y-77700000D03*
X47160000Y-77700000D03*
X44620000Y-72620000D03*
X38270000Y-75160000D03*
X94220000Y-115800000D03*
X99300000Y-115800000D03*
X104380000Y-115800000D03*
X101840000Y-110720000D03*
X95490000Y-113260000D03*
X33800000Y-111862700D03*
X33800000Y-119399700D03*
X75120000Y-96700000D03*
X80200000Y-96700000D03*
X85280000Y-96700000D03*
X82740000Y-91620000D03*
X76390000Y-94160000D03*
X36980000Y-96700000D03*
X42060000Y-96700000D03*
X47140000Y-96700000D03*
X44600000Y-91620000D03*
X38250000Y-94160000D03*
X94220000Y-96700000D03*
X99300000Y-96700000D03*
X104380000Y-96700000D03*
X101840000Y-91620000D03*
X95490000Y-94160000D03*
X75120000Y-77700000D03*
X80200000Y-77700000D03*
X85280000Y-77700000D03*
X82740000Y-72620000D03*
X76390000Y-75160000D03*
X89750000Y-73750000D03*
X89750000Y-81287000D03*
X75120000Y-115800000D03*
X80200000Y-115800000D03*
X85280000Y-115800000D03*
X82740000Y-110720000D03*
X76390000Y-113260000D03*
X51600000Y-92700000D03*
X51600000Y-100237000D03*
X89825000Y-111763000D03*
X89825000Y-119300000D03*
M02*
