M48
; DRILL file KiCad 10.0.0 date 2026-03-31T21:36:53
; FORMAT={-:-/ absolute / metric / decimal}
; #@! TF.CreationDate,2026-03-31T21:36:53-07:00
; #@! TF.GenerationSoftware,Kicad,Pcbnew,10.0.0
; #@! TF.FileFunction,Plated,1,2,PTH
FMAT,2
METRIC
; #@! TA.AperFunction,Plated,PTH,ViaDrill
T1C0.300
; #@! TA.AperFunction,Plated,PTH,ComponentDrill
T2C0.730
; #@! TA.AperFunction,Plated,PTH,ComponentDrill
T3C1.000
; #@! TA.AperFunction,Plated,PTH,ComponentDrill
T4C1.020
; #@! TA.AperFunction,Plated,PTH,ComponentDrill
T5C1.500
%
G90
G05
T1
X39.6Y-53.9
X39.746Y-57.674
X40.51Y-70.089
X41.933Y-81.202
X44.092Y-65.772
X45.623Y-81.417
X48.56Y-57.297
X49.38Y-58.121
X54.439Y-110.572
X61.908Y-74.513
X86.762Y-69.136
T2
X33.8Y-92.713
X33.8Y-100.25
X33.8Y-111.863
X33.8Y-119.4
X33.9Y-73.663
X33.9Y-81.2
X51.6Y-92.7
X51.6Y-100.237
X51.605Y-73.663
X51.605Y-81.2
X51.625Y-111.763
X51.625Y-119.3
X70.65Y-92.681
X70.65Y-100.218
X70.675Y-73.663
X70.675Y-81.2
X70.8Y-111.763
X70.8Y-119.3
X89.75Y-73.75
X89.75Y-81.287
X89.75Y-92.681
X89.75Y-100.218
X89.825Y-111.763
X89.825Y-119.3
T3
X92.5Y-75.1
X92.5Y-77.6
X92.5Y-80.1
X107.0Y-75.1
X107.0Y-80.1
T4
X62.1Y-55.45
X62.1Y-57.99
X62.1Y-60.53
X62.1Y-63.07
T5
X38.25Y-94.16
X38.27Y-75.16
X38.29Y-113.26
X44.6Y-91.62
X44.62Y-72.62
X44.64Y-110.72
X57.29Y-75.16
X57.29Y-94.16
X57.29Y-113.26
X63.64Y-72.62
X63.64Y-91.62
X63.64Y-110.72
X76.39Y-75.16
X76.39Y-94.16
X76.39Y-113.26
X82.74Y-72.62
X82.74Y-91.62
X82.74Y-110.72
X95.49Y-94.16
X95.49Y-113.26
X101.84Y-91.62
X101.84Y-110.72
T5
G00X99.35Y-72.0
M15
G01X100.65Y-72.0
M16
G05
G00X99.35Y-83.2
M15
G01X100.65Y-83.2
M16
G05
M30
